<?xml version="1.0" encoding="UTF-8"?>
<svg width="234px" height="234px" viewBox="0 0 234 234" version="1.1" xmlns="http://www.w3.org/2000/svg" xmlns:xlink="http://www.w3.org/1999/xlink">
    <!-- Generator: Sketch 49 (51002) - http://www.bohemiancoding.com/sketch -->
    <title>4of6</title>
    <desc>Created with Sketch.</desc>
    <defs>
        <linearGradient x1="91.0138618%" y1="58.2873342%" x2="10.4370663%" y2="44.0237096%" id="linearGradient-1">
            <stop stop-color="#FDCA7C" offset="0%"></stop>
            <stop stop-color="#D2A232" offset="100%"></stop>
        </linearGradient>
        <polygon id="path-2" points="122.942286 32.9422863 200.884573 77.9422863 200.884573 167.942286 122.942286 212.942286 45 167.942286 45 77.9422863"></polygon>
        <polygon id="path-3" points="0 0.0783226979 41.7834133 0.0783226979 41.7834133 56.6530407 0 56.6530407"></polygon>
        <linearGradient x1="100%" y1="50%" x2="-2.22044605e-14%" y2="50%" id="linearGradient-5">
            <stop stop-color="#26B6BB" offset="0%"></stop>
            <stop stop-color="#2672BB" offset="100%"></stop>
        </linearGradient>
        <linearGradient x1="50%" y1="0%" x2="50%" y2="100%" id="linearGradient-6">
            <stop stop-color="#FFB02C" offset="0%"></stop>
            <stop stop-color="#FFE600" offset="50.5531973%"></stop>
            <stop stop-color="#FFB02C" offset="100%"></stop>
        </linearGradient>
        <linearGradient x1="50%" y1="100%" x2="50%" y2="3.061617e-15%" id="linearGradient-7">
            <stop stop-color="#26B6BB" offset="0%"></stop>
            <stop stop-color="#2672BB" offset="100%"></stop>
        </linearGradient>
        <linearGradient x1="50%" y1="100%" x2="50%" y2="3.061617e-15%" id="linearGradient-8">
            <stop stop-color="#FFE600" offset="0%"></stop>
            <stop stop-color="#FFB02C" offset="100%"></stop>
        </linearGradient>
    </defs>
    <g id="4of6" stroke="none" stroke-width="1" fill="none" fill-rule="evenodd">
        <g id="Group-2" transform="translate(-6.000000, -6.000000)">
            <g id="Polygon-2" transform="translate(122.942286, 122.942286) rotate(-330.000000) translate(-122.942286, -122.942286) ">
                <use fill="#FFAB2B" fill-rule="evenodd" xlink:href="#path-2"></use>
                <path stroke="url(#linearGradient-1)" stroke-width="6" d="M122.942286,36.406388 L48,79.6743371 L48,166.210236 L122.942286,209.478185 L197.884573,166.210236 L197.884573,79.6743371 L122.942286,36.406388 Z"></path>
            </g>
            <g id="Group-56" transform="translate(92.000000, 64.000000)">
                <g id="Page-1">
                    <polygon id="Fill-1" fill="#445883" points="40.4286658 0.157274494 20.2122372 56.7320554 41.7806454 56.7320554 61.9969158 0.157274494"></polygon>
                    <g id="Group-11" transform="translate(0.000000, 0.078952)">
                        <path d="M30.2804679,46.660763 C30.2445648,46.660763 30.2100852,46.6613921 30.1741821,46.6613921 C30.1384372,46.6613921 30.1037995,46.660763 30.0680546,46.660763 C7.52694235,46.660763 11.9071158,62.3510956 13.4302281,66.106496 C13.5599219,65.9824064 13.6908811,65.856115 13.8261107,65.7414619 C14.0635138,65.5267822 14.3241668,65.33475 14.6056974,65.1688254 C14.6124985,65.164579 14.6194577,65.1598608 14.6262587,65.1557717 C14.6455546,65.1439761 14.666274,65.1331241 14.6855699,65.1222722 C14.8829577,65.0021145 17.6338913,64.8970551 17.8434577,64.8019041 C16.565973,60.1547573 13.6206566,52.3154102 30.0680546,52.2050035 C30.1037995,52.2050035 30.1384372,52.207048 30.1741821,52.2078344 C30.2100852,52.207048 30.2445648,52.2050035 30.2804679,52.2050035 C46.7278658,52.3154102 43.7823913,60.1547573 42.5049066,64.8019041 C42.7146311,64.8970551 45.4655648,65.0021145 45.6627944,65.1222722 C45.6820903,65.1331241 45.7028097,65.1439761 45.7221056,65.1557717 C45.7290648,65.1598608 45.7358658,65.164579 45.742825,65.1688254 C46.0241974,65.33475 46.2850087,65.5267822 46.5222536,65.7414619 C46.6574832,65.856115 46.7886005,65.9824064 46.9195597,66.106496 C48.4412485,62.3510956 52.8214219,46.660763 30.2804679,46.660763" id="Fill-2" fill="#4A90E2"></path>
                        <path d="M60.2104776,86.7784982 C60.2104776,103.215885 46.8105694,116.540337 30.280452,116.540337 C13.7503347,116.540337 0.350426531,103.215885 0.350426531,86.7784982 C0.350426531,70.3418981 13.7503347,57.0168166 30.280452,57.0168166 C46.8105694,57.0168166 60.2104776,70.3418981 60.2104776,86.7784982" id="Fill-4" fill="#4A90E2"></path>
                        <path d="M52.197551,86.4766185 C52.197551,98.3382608 42.5266582,107.954023 30.5987755,107.954023 C18.6696276,107.954023 9,98.3382608 9,86.4766185 C9,74.6151335 18.6696276,65 30.5987755,65 C42.5266582,65 52.197551,74.6151335 52.197551,86.4766185" id="Fill-6" fill="#4A90E2"></path>
                        <path d="M52.197551,86.4766185 C52.197551,98.3382608 42.5266582,107.954023 30.5987755,107.954023 C18.6696276,107.954023 9,98.3382608 9,86.4766185 C9,74.6151335 18.6696276,65 30.5987755,65 C42.5266582,65 52.197551,74.6151335 52.197551,86.4766185" id="Fill-6" fill="#000000" opacity="0.5"></path>
                        <g id="Group-10">
                            <mask id="mask-4" fill="white">
                                <use xlink:href="#path-3"></use>
                            </mask>
                            <g id="Clip-9"></g>
                            <polygon id="Fill-8" fill="#5D749F" mask="url(#mask-4)" points="0 0.0782597881 20.2164286 56.6530407 41.7834133 56.6530407 21.5669847 0.0782597881"></polygon>
                        </g>
                    </g>
                </g>
                <g id="Group" transform="translate(17.000000, 75.000000)">
                    <g>
                        <path d="M3.76957924,0.543687828 C2.96059151,1.30594602 2.9164135,2.58653502 3.6706205,3.40403104 L11.7484814,12.1573217 C12.5026883,12.9748177 13.7700671,13.0194604 14.578937,12.2573212 C15.3879248,11.494944 15.4321028,10.214355 14.6778958,9.39697803 L6.60003492,0.643568293 C6.20561364,0.216070376 5.67100081,0 5.13497428,0 C4.64583535,0 4.15551834,0.179999123 3.76957924,0.543687828" id="Fill-1" fill="url(#linearGradient-5)"></path>
                        <path d="M20.7796602,0.6383977 L3.65823119,19.4819942 C2.92136539,20.2929222 2.96462922,21.5633407 3.75476936,22.3193566 C4.54479443,23.0756088 5.78253107,23.0313248 6.51928181,22.2203967 L23.6408259,3.37668217 C24.3775766,2.56587222 24.3344278,1.29545371 23.5442877,0.539319699 C23.167225,0.178552964 22.6884464,0 22.2107033,0 C21.6871649,0 21.1648923,0.214452501 20.7796602,0.6383977" id="Fill-4" fill="url(#linearGradient-6)"></path>
                        <path d="M21.9287146,0 C22.439975,0 22.8553528,0.421814226 22.8705939,0.947550281 L22.8705939,20.8605987 C22.8705939,21.9642674 23.7342203,22.8587963 24.7995073,22.8587963 L24.9225738,22.8587963 C25.9877471,22.8587963 26.8514872,21.9642674 26.8514872,20.8605987 L26.8514872,1.99890457 C26.8514872,0.895353716 25.9877471,0.000706951217 24.9225738,0.000706951217 L22.8719588,0.000706951217 L22.8719588,0 L21.9287146,0 Z" id="Fill-7" fill="url(#linearGradient-7)"></path>
                        <path d="M1.99280532,0 C0.892134575,0 0,0.924480367 0,2.06505773 L0,20.7936207 C0,21.9340803 0.892134575,22.8586785 1.99280532,22.8586785 L3.97958424,22.8586785 L3.97958424,22.8587963 L4.92277266,22.8587963 C4.40222817,22.8587963 3.98038018,22.422007 3.97969795,21.8829428 L3.97969795,0.973025602 C3.98197206,0.435375345 4.40313781,0.00011782824 4.92254525,0.00011782824 L3.97969795,0.00011782824 L3.97969795,0 L1.99280532,0 Z" id="Fill-10" fill="url(#linearGradient-8)"></path>
                    </g>
                </g>
            </g>
        </g>
    </g>
</svg>