<?xml version="1.0" encoding="UTF-8"?>
<svg width="234px" height="234px" viewBox="0 0 234 234" version="1.1" xmlns="http://www.w3.org/2000/svg" xmlns:xlink="http://www.w3.org/1999/xlink">
    <!-- Generator: Sketch 49 (51002) - http://www.bohemiancoding.com/sketch -->
    <title>5of6</title>
    <desc>Created with Sketch.</desc>
    <defs>
        <linearGradient x1="15.061457%" y1="30.6732179%" x2="91.669499%" y2="53.6764034%" id="linearGradient-1">
            <stop stop-color="#511385" offset="0%"></stop>
            <stop stop-color="#9965DB" offset="100%"></stop>
        </linearGradient>
        <polygon id="path-2" points="122.942286 32.9422863 200.884573 77.9422863 200.884573 167.942286 122.942286 212.942286 45 167.942286 45 77.9422863"></polygon>
        <polygon id="path-3" points="28.5 0 57 16 57 48 28.5 64 1.59872116e-14 48 -1.77635684e-15 16"></polygon>
        <linearGradient x1="100%" y1="50%" x2="-2.22044605e-14%" y2="50%" id="linearGradient-4">
            <stop stop-color="#26B6BB" offset="0%"></stop>
            <stop stop-color="#2672BB" offset="100%"></stop>
        </linearGradient>
        <linearGradient x1="50%" y1="0%" x2="50%" y2="100%" id="linearGradient-5">
            <stop stop-color="#FFB02C" offset="0%"></stop>
            <stop stop-color="#FFE600" offset="50.5531973%"></stop>
            <stop stop-color="#FFB02C" offset="100%"></stop>
        </linearGradient>
        <linearGradient x1="50%" y1="100%" x2="50%" y2="3.061617e-15%" id="linearGradient-6">
            <stop stop-color="#26B6BB" offset="0%"></stop>
            <stop stop-color="#2672BB" offset="100%"></stop>
        </linearGradient>
        <linearGradient x1="50%" y1="100%" x2="50%" y2="3.061617e-15%" id="linearGradient-7">
            <stop stop-color="#FFE600" offset="0%"></stop>
            <stop stop-color="#FFB02C" offset="100%"></stop>
        </linearGradient>
        <polygon id="path-8" points="0 0.5922 63.3984 0.5922 63.3984 63 0 63"></polygon>
    </defs>
    <g id="5of6" stroke="none" stroke-width="1" fill="none" fill-rule="evenodd">
        <g id="Group" transform="translate(-6.000000, -6.000000)">
            <g id="Polygon-2" transform="translate(122.942286, 122.942286) rotate(-330.000000) translate(-122.942286, -122.942286) ">
                <use fill="#53278A" fill-rule="evenodd" xlink:href="#path-2"></use>
                <path stroke="url(#linearGradient-1)" stroke-width="6" d="M122.942286,36.406388 L48,79.6743371 L48,166.210236 L122.942286,209.478185 L197.884573,166.210236 L197.884573,79.6743371 L122.942286,36.406388 Z"></path>
            </g>
            <g id="Group-32" transform="translate(78.000000, 77.000000)">
                <g id="Polygon">
                    <use fill="#12142D" fill-rule="evenodd" xlink:href="#path-3"></use>
                    <path stroke="#4A90E2" stroke-width="2" d="M28.5,1.14681032 L1,16.5854068 L1,47.4145932 L28.5,62.8531897 L56,47.4145932 L56,16.5854068 L28.5,1.14681032 Z"></path>
                </g>
                <g id="Group-26" transform="translate(13.000000, 18.000000)">
                    <path d="M4.67385042,0.634256585 C3.53567292,1.52349348 3.47351819,3.01740592 4.53462382,3.97108228 L15.8994927,14.1825161 C16.9605984,15.1361924 18.7436934,15.1882718 19.8817051,14.2991737 C21.0198826,13.409798 21.0820374,11.9158855 20.0209317,10.962348 L8.65606283,0.750775366 C8.10114536,0.252063871 7.3489902,0 6.59484609,0 C5.90666886,0 5.21683418,0.209983787 4.67385042,0.634256585" id="Fill-1" fill="url(#linearGradient-4)"></path>
                    <path d="M27.5490965,0.781980615 L4.48572863,23.8637166 C3.49313583,24.8570316 3.55141423,26.4131817 4.61577006,27.3392342 C5.6799709,28.265576 7.3472602,28.2113321 8.339698,27.2180171 L31.4032209,4.13613646 C32.3956587,3.14296611 32.3375353,1.58681601 31.2731795,0.660618844 C30.7652584,0.218711559 30.1203211,0 29.4767787,0 C28.771548,0 28.0680223,0.262685312 27.5490965,0.781980615" id="Fill-4" fill="url(#linearGradient-5)"></path>
                    <path d="M28.3333333,0 C28.9218518,0 29.3999985,0.516685051 29.4175427,1.16066513 L29.4175427,25.552385 C29.4175427,26.9042813 30.4116741,28 31.6379397,28 L31.7796031,28 C33.0057377,28 34,26.9042813 34,25.552385 L34,2.44848097 C34,1.09672897 33.0057377,0.000865952599 31.7796031,0.000865952599 L29.4191139,0.000865952599 L29.4191139,0 L28.3333333,0 Z" id="Fill-7" fill="url(#linearGradient-6)"></path>
                    <path d="M2.29394373,0 C1.02694754,0 0,1.13240653 0,2.52951273 L0,25.4703429 C0,26.8673048 1.02694754,27.9998557 2.29394373,27.9998557 L4.5809504,27.9998557 L4.5809504,28 L5.66666667,28 C5.06746123,28 4.58186662,27.4649718 4.58108129,26.804666 L4.58108129,1.19187014 C4.58369905,0.53329622 5.06850834,0.000144329153 5.66640489,0.000144329153 L4.58108129,0.000144329153 L4.58108129,0 L2.29394373,0 Z" id="Fill-10" fill="url(#linearGradient-7)"></path>
                </g>
            </g>
            <g id="Group-55" transform="translate(108.000000, 111.000000)">
                <g id="Page-1">
                    <g id="Group-3">
                        <mask id="mask-9" fill="white">
                            <use xlink:href="#path-8"></use>
                        </mask>
                        <g id="Clip-2"></g>
                        <path d="M31.69912,0.591885 C49.20632,0.591885 63.39912,14.5629225 63.39912,31.7965725 C63.39912,49.029435 49.20632,63.0004725 31.69912,63.0004725 C14.19192,63.0004725 -8e-05,49.029435 -8e-05,31.7965725 C-8e-05,14.5629225 14.19192,0.591885 31.69912,0.591885" id="Fill-1" fill="#ED582E" mask="url(#mask-9)"></path>
                    </g>
                    <path d="M32,9.25149603 C19.4802151,9.25149603 9.33177694,19.2431774 9.33177694,31.5003916 C9.33177694,43.788147 19.512131,53.748504 32,53.748504 C44.4886669,53.748504 54.669021,43.7568226 54.669021,31.5003916 C54.669021,19.211853 44.5197849,9.25149603 32,9.25149603 M32,58 C17.1088685,58 5,46.1147623 5,31.5003916 C5,16.8852377 17.1088685,5 32,5 C46.8919294,5 59,16.8852377 59,31.5003916 C59,46.1147623 46.8919294,58 32,58" id="Fill-4" fill="#FFFFFF"></path>
                    <path d="M33.3943662,41.5359242 C34.3132803,41.3772164 35.0738437,40.9323537 35.6440663,40.2654603 C36.2142889,39.5665047 36.4998001,38.7729658 36.4998001,37.8519796 C36.4998001,37.0263784 36.2462789,36.3266213 35.7712267,35.7238523 C35.2953748,35.1202818 34.5036211,34.675419 33.3943662,34.3580034 L33.3943662,41.5359242 Z M30.7008042,21.8761963 C29.9722309,22.130289 29.4012085,22.5430896 28.9581464,23.1466602 C28.5142844,23.7502308 28.3239437,24.3850619 28.3239437,25.1152781 C28.3239437,25.782973 28.5142844,26.385742 28.9261563,26.9259898 C29.3380282,27.465436 29.9090505,27.9423609 30.7008042,28.2918387 L30.7008042,21.8761963 Z M30.7008042,41.2818314 L30.7008042,33.5324022 C28.2927534,32.8334467 26.5173057,31.7850134 25.4088506,30.3879038 C24.2995957,28.9907943 23.7293731,27.3075298 23.7293731,25.3060481 C23.7293731,23.2733058 24.362776,21.5900413 25.6303817,20.2241924 C26.8979873,18.8583435 28.6094548,18.0648045 30.7008042,17.8419723 L30.7008042,16 L33.3623761,16 L33.3623761,17.8419723 C35.3273648,18.0648045 36.8796819,18.7316978 38.0209268,19.843454 C39.1621718,20.9552101 39.9219354,22.4156425 40.2394366,24.2576148 L35.5808859,24.8611853 C35.2953748,23.400753 34.5668014,22.4156425 33.3623761,21.9074569 L33.3623761,29.1174399 C36.310259,29.9117804 38.306438,30.9594122 39.3837028,32.2298761 C40.4609677,33.5003401 41,35.1523439 41,37.1209619 C41,39.3444741 40.334607,41.2185086 38.971831,42.7430653 C37.641045,44.2676221 35.7712267,45.2198688 33.3623761,45.538086 L33.3623761,49 L30.7008042,49 L30.7008042,45.6326694 C28.5774648,45.3785766 26.8348069,44.5850376 25.5352113,43.2512509 C24.2364153,41.9174642 23.3486915,40.0434297 23,37.6291474 L27.8169014,37.1209619 C28.0072422,38.1060724 28.387124,38.9637357 28.9261563,39.6618897 C29.4331986,40.4562303 30.0354112,40.9644158 30.7008042,41.2818314 Z" id="Fill-6" fill="#FDFEFF"></path>
                </g>
            </g>
        </g>
    </g>
</svg>