<?xml version="1.0" encoding="UTF-8"?>
<svg width="350px" height="250px" viewBox="0 0 350 250" version="1.1" xmlns="http://www.w3.org/2000/svg" xmlns:xlink="http://www.w3.org/1999/xlink">
    <!-- Generator: Sketch 49 (51002) - http://www.bohemiancoding.com/sketch -->
    <title>1of3</title>
    <desc>Created with Sketch.</desc>
    <defs>
        <polygon id="path-1" points="0 0.759 195.943 0.759 195.943 73 0 73"></polygon>
    </defs>
    <g id="1of3" stroke="none" stroke-width="1" fill="none" fill-rule="evenodd">
        <g id="Page-1" transform="translate(77.000000, 32.000000)">
            <path d="M98.4556,101.8098 C98.3346,101.8098 98.2136,101.9308 97.9716,101.9308 C97.8506,101.9308 97.7296,101.8098 97.4876,101.8098 L98.4556,101.8098 Z" id="Fill-1" fill="#E2E5EA"></path>
            <path d="M159.8907,114.1448 C145.9827,133.1318 123.3687,145.5878 97.9717,145.5878 C72.5757,145.5878 50.0807,133.2528 36.0527,114.1448 C46.9367,102.5358 61.6907,96.3678 74.0267,93.2228 C72.9377,102.0518 77.5337,113.9028 77.6547,113.5408 C82.2497,102.8978 97.8507,101.9308 97.8507,101.9308 C97.8507,101.9308 113.4517,102.7768 118.1677,113.5408 C118.2887,113.7828 122.8847,102.0518 121.7957,93.2228 C134.2527,96.3678 149.0067,102.5358 159.8907,114.1448" id="Fill-3" fill="#E2E5EA"></path>
            <path d="M117.0796,85.1204 C117.0796,86.6924 116.1116,95.0374 98.4556,101.8094 L97.4876,101.8094 C79.8316,95.0374 78.8636,86.6924 78.8636,85.1204 C78.9846,81.9764 79.7106,78.8314 81.0406,75.9294 C85.8776,81.3714 91.6836,84.9994 97.9716,84.9994 C104.1396,84.9994 110.0646,81.4924 114.9026,75.9294 C116.2326,78.8314 117.0796,81.9764 117.0796,85.1204" id="Fill-5" fill="#FFCC5B"></path>
            <path d="M108.4932,104.5911 L104.6232,112.3311 L91.3202,112.3311 L87.4502,104.5911 C92.7712,102.2931 97.9722,101.9301 97.9722,101.9301 C97.9722,101.9301 103.2932,102.2931 108.4932,104.5911" id="Fill-7" fill="#ED543F"></path>
            <path d="M87.2085,144.8626 C90.7155,145.3466 94.3435,145.5886 98.0925,145.5886 C101.7205,145.5886 105.3485,145.3466 108.9765,144.8626 L104.7445,112.4516 L91.4415,112.4516 L87.2085,144.8626 Z" id="Fill-9" fill="#FF7058"></path>
            <path d="M117.0796,84.8787 C117.0796,84.8787 117.9256,94.5537 97.9716,101.9307 C97.9716,101.9307 113.5726,102.7767 118.2886,113.5407 C118.4096,114.0247 127.4796,90.5627 117.0796,84.8787" id="Fill-11" fill="#FFFFFF"></path>
            <path d="M78.8638,84.8787 C68.5848,90.5627 77.5338,113.9027 77.7758,113.5407 C82.3708,102.8977 98.0928,101.9307 98.0928,101.9307 C78.0178,94.5537 78.8638,84.8787 78.8638,84.8787" id="Fill-13" fill="#FFFFFF"></path>
            <path d="M115.8701,78.3479 C110.7911,83.7899 104.7441,87.2969 97.9721,87.2969 C91.1991,87.2969 85.1521,83.7899 80.0731,78.3479 C80.3151,77.5019 80.6781,76.6549 81.0411,75.9299 C85.8781,81.3709 91.6831,84.9999 97.9721,84.9999 C104.2601,84.9999 110.0651,81.4929 114.9021,75.9299 C115.2661,76.6549 115.6281,77.5019 115.8701,78.3479" id="Fill-15" fill="#F5B14C"></path>
            <path d="M130.9868,59.845 C128.4468,64.078 124.5778,66.617 121.6748,66.134 C115.8698,76.897 107.4048,84.879 97.9718,84.879 C88.5388,84.879 80.0728,76.776 74.2688,66.134 C71.3658,66.496 67.4958,64.078 64.9568,59.845 C61.9328,54.887 61.8118,49.445 64.7148,47.631 C65.4398,47.268 66.1658,47.026 67.0118,47.147 C68.9468,52.105 71.6078,55.128 71.6078,55.128 C68.8258,39.77 80.1948,38.076 78.2588,23.323 C78.2588,23.323 85.3948,39.165 105.8328,28.039 L104.2598,31.062 C132.8008,24.653 123.2468,58.273 123.0058,59.119 C126.2708,55.008 128.3268,50.896 129.5358,47.147 C130.0198,47.147 130.6238,47.389 130.9868,47.631 C134.1318,49.324 134.0098,54.887 130.9868,59.845" id="Fill-17" fill="#FFCC5B"></path>
            <path d="M114.419,7.3592 C116.717,7.1172 120.466,9.1732 120.466,9.1732 C110.186,-2.5578 93.376,4.9412 93.376,4.9412 C99.06,0.1032 104.139,0.5872 104.139,0.5872 C80.073,-3.0408 75.961,11.3502 75.961,11.3502 C74.873,9.6572 74.873,7.2382 74.994,6.0282 C73.301,8.9312 75.115,14.7362 75.115,14.7362 C73.422,10.5032 67.496,11.2292 67.496,11.2292 C72.575,12.0752 73.422,15.2202 73.422,15.2202 C60.724,19.9362 62.9,33.1182 62.9,33.1182 L65.924,29.4902 C62.175,43.8812 71.729,55.0072 71.729,55.0072 C68.947,39.6492 80.315,37.9562 78.38,23.2012 C78.38,23.2012 85.516,39.0442 105.953,27.9182 L104.381,30.9422 C133.285,24.4112 123.127,59.1192 123.127,59.1192 C133.406,46.0582 131.834,32.6342 131.834,32.6342 L133.043,37.4722 C136.308,15.7032 114.419,7.3592 114.419,7.3592" id="Fill-19" fill="#324A5E"></path>
            <g id="Group-23" transform="translate(0.000000, 112.929000)">
                <mask id="mask-2" fill="white">
                    <use xlink:href="#path-1"></use>
                </mask>
                <g id="Clip-22"></g>
                <path d="M187.2159,73 L8.7279,73 C3.9069,73 -0.0001,69.093 -0.0001,64.272 L-0.0001,9.487 C-0.0001,4.667 3.9069,0.759 8.7279,0.759 L187.2159,0.759 C192.0359,0.759 195.9439,4.667 195.9439,9.487 L195.9439,64.272 C195.9439,69.093 192.0359,73 187.2159,73" id="Fill-21" fill="#1C9181" mask="url(#mask-2)"></path>
            </g>
            <path d="M44.3809,143.3152 L43.4109,143.9172 C43.1099,144.1182 42.8079,144.1852 42.5739,144.1852 C41.6039,144.1852 40.9349,143.1482 40.9349,142.1102 C40.9349,141.4082 41.2359,140.7392 41.9049,140.3372 L46.3209,137.6612 C46.5889,137.4932 46.9239,137.4272 47.2919,137.4272 C48.3619,137.4272 49.5999,138.0622 49.5999,139.0662 L49.5999,160.3452 C49.5999,161.4162 48.2949,161.9512 46.9899,161.9512 C45.6859,161.9512 44.3809,161.4162 44.3809,160.3452 L44.3809,143.3152 Z" id="Fill-24" fill="#FFFFFF"></path>
            <path d="M57.1939,159.576 C57.1939,160.948 56.0229,162.153 54.6519,162.153 C53.1789,162.153 52.0749,160.948 52.0749,159.576 C52.0749,158.171 53.1789,156.999 54.6519,156.999 C56.0229,156.999 57.1939,158.17 57.1939,159.576" id="Fill-26" fill="#FFFFFF"></path>
            <path d="M70.4756,145.3899 C70.4756,143.0809 69.3376,142.0439 67.4646,142.0439 C65.5906,142.0439 64.4866,143.0809 64.4866,145.3899 L64.4866,154.2559 C64.4866,156.5649 65.5906,157.6019 67.4646,157.6019 C69.3376,157.6019 70.4756,156.5649 70.4756,154.2559 L70.4756,145.3899 Z M59.2676,154.2559 L59.2676,145.3899 C59.2676,139.6349 62.8476,137.4939 67.4646,137.4939 C72.0816,137.4939 75.6956,139.6349 75.6956,145.3899 L75.6956,154.2559 C75.6956,160.0119 72.0816,162.1529 67.4646,162.1529 C62.8476,162.1529 59.2676,160.0109 59.2676,154.2559 Z" id="Fill-28" fill="#FFFFFF"></path>
            <path d="M89.5103,145.3899 C89.5103,143.0809 88.3723,142.0439 86.4993,142.0439 C84.6253,142.0439 83.5213,143.0809 83.5213,145.3899 L83.5213,154.2559 C83.5213,156.5649 84.6253,157.6019 86.4993,157.6019 C88.3723,157.6019 89.5103,156.5649 89.5103,154.2559 L89.5103,145.3899 Z M78.3023,154.2559 L78.3023,145.3899 C78.3023,139.6349 81.8823,137.4939 86.4993,137.4939 C91.1163,137.4939 94.7303,139.6349 94.7303,145.3899 L94.7303,154.2559 C94.7303,160.0119 91.1163,162.1529 86.4993,162.1529 C81.8823,162.1529 78.3023,160.0109 78.3023,154.2559 Z" id="Fill-30" fill="#FFFFFF"></path>
            <path d="M108.545,145.3899 C108.545,143.0809 107.408,142.0439 105.534,142.0439 C103.66,142.0439 102.556,143.0809 102.556,145.3899 L102.556,154.2559 C102.556,156.5649 103.66,157.6019 105.534,157.6019 C107.408,157.6019 108.545,156.5649 108.545,154.2559 L108.545,145.3899 Z M97.337,154.2559 L97.337,145.3899 C97.337,139.6349 100.917,137.4939 105.534,137.4939 C110.151,137.4939 113.764,139.6349 113.764,145.3899 L113.764,154.2559 C113.764,160.0119 110.151,162.1529 105.534,162.1529 C100.917,162.1529 97.337,160.0109 97.337,154.2559 Z" id="Fill-32" fill="#FFFFFF"></path>
            <path d="M120.9551,159.576 C120.9551,160.948 119.7841,162.153 118.4121,162.153 C116.9401,162.153 115.8361,160.948 115.8361,159.576 C115.8361,158.171 116.9401,156.999 118.4121,156.999 C119.7841,156.999 120.9551,158.17 120.9551,159.576" id="Fill-34" fill="#FFFFFF"></path>
            <path d="M134.2364,145.3899 C134.2364,143.0809 133.0994,142.0439 131.2254,142.0439 C129.3514,142.0439 128.2474,143.0809 128.2474,145.3899 L128.2474,154.2559 C128.2474,156.5649 129.3514,157.6019 131.2254,157.6019 C133.0994,157.6019 134.2364,156.5649 134.2364,154.2559 L134.2364,145.3899 Z M123.0284,154.2559 L123.0284,145.3899 C123.0284,139.6349 126.6084,137.4939 131.2264,137.4939 C135.8434,137.4939 139.4564,139.6349 139.4564,145.3899 L139.4564,154.2559 C139.4564,160.0119 135.8424,162.1529 131.2264,162.1529 C126.6094,162.1529 123.0284,160.0109 123.0284,154.2559 Z" id="Fill-36" fill="#FFFFFF"></path>
            <path d="M153.271,145.3899 C153.271,143.0809 152.133,142.0439 150.26,142.0439 C148.386,142.0439 147.282,143.0809 147.282,145.3899 L147.282,154.2559 C147.282,156.5649 148.386,157.6019 150.26,157.6019 C152.133,157.6019 153.271,156.5649 153.271,154.2559 L153.271,145.3899 Z M142.063,154.2559 L142.063,145.3899 C142.063,139.6349 145.643,137.4939 150.26,137.4939 C154.878,137.4939 158.491,139.6349 158.491,145.3899 L158.491,154.2559 C158.491,160.0119 154.877,162.1529 150.26,162.1529 C145.644,162.1529 142.063,160.0109 142.063,154.2559 Z" id="Fill-38" fill="#FFFFFF"></path>
            <path d="M172.3062,145.3899 C172.3062,143.0809 171.1682,142.0439 169.2952,142.0439 C167.4212,142.0439 166.3172,143.0809 166.3172,145.3899 L166.3172,154.2559 C166.3172,156.5649 167.4212,157.6019 169.2952,157.6019 C171.1682,157.6019 172.3062,156.5649 172.3062,154.2559 L172.3062,145.3899 Z M161.0982,154.2559 L161.0982,145.3899 C161.0982,139.6349 164.6772,137.4939 169.2952,137.4939 C173.9122,137.4939 177.5252,139.6349 177.5252,145.3899 L177.5252,154.2559 C177.5252,160.0119 173.9122,162.1529 169.2952,162.1529 C164.6782,162.1529 161.0982,160.0109 161.0982,154.2559 Z" id="Fill-40" fill="#FFFFFF"></path>
            <path d="M28.0503,152.5569 L28.0503,157.1009 C29.2033,156.8299 30.1183,156.1859 30.1183,154.9649 C30.1183,153.8449 29.2703,153.1329 28.0503,152.5569 Z M26.1503,146.2829 L26.1503,142.2459 C24.6243,142.5519 23.9793,143.3319 23.9793,144.1459 C23.9803,145.1289 24.8623,145.7399 26.1503,146.2829 Z M25.8113,161.9519 C21.7413,161.8159 18.4183,159.7129 18.4183,157.5419 C18.4183,156.3889 19.4353,154.6929 20.7243,154.6929 C22.1483,154.6929 23.3013,156.6949 25.8113,157.1349 L25.8113,151.6409 C22.6913,150.4539 19.0283,148.9949 19.0283,144.6539 C19.0283,140.3469 22.2173,138.2779 25.8113,137.7689 L25.8113,136.8189 C25.8113,136.3449 26.3543,135.9039 27.1003,135.9039 C27.7453,135.9039 28.3893,136.3449 28.3893,136.8189 L28.3893,137.6669 C30.4923,137.7349 34.4603,138.2769 34.4603,140.6179 C34.4603,141.5339 33.8493,143.3989 32.3573,143.3989 C31.2383,143.3989 30.5933,142.3129 28.3883,142.1439 L28.3883,147.0959 C31.4753,148.2479 35.0703,149.8429 35.0703,154.4219 C35.0703,158.6269 32.3563,161.1709 28.3883,161.8149 L28.3883,162.7979 C28.3883,163.2739 27.7443,163.7139 27.0993,163.7139 C26.3543,163.7139 25.8103,163.2729 25.8103,162.7979 L25.8103,161.9519 L25.8113,161.9519 Z" id="Fill-42" fill="#FFFFFF"></path>
        </g>
    </g>
</svg>