<?xml version="1.0" encoding="UTF-8"?>
<svg width="350px" height="250px" viewBox="0 0 350 250" version="1.1" xmlns="http://www.w3.org/2000/svg" xmlns:xlink="http://www.w3.org/1999/xlink">
    <!-- Generator: Sketch 49 (51002) - http://www.bohemiancoding.com/sketch -->
    <title>2of3</title>
    <desc>Created with Sketch.</desc>
    <defs>
        <polygon id="path-1" points="0 183 258.525 183 258.525 0.563 0 0.563"></polygon>
        <polygon id="path-3" points="0 183.438 258.525 183.438 258.525 1.001 0 1.001"></polygon>
    </defs>
    <g id="2of3" stroke="none" stroke-width="1" fill="none" fill-rule="evenodd">
        <g id="Page-1" transform="translate(46.000000, 33.000000)">
            <path d="M221.4483,161.3013 C221.4483,165.9493 217.6803,169.7153 213.0343,169.7153 L44.7763,169.7153 C40.1303,169.7163 36.3643,165.9503 36.3653,161.3023 L36.3643,57.1933 C36.3643,52.5463 40.1303,48.7803 44.7763,48.7813 L213.0333,48.7803 C217.6813,48.7803 221.4483,52.5463 221.4483,57.1933 L221.4483,161.3013 Z" id="Fill-1" fill="#154F77"></path>
            <polygon id="Fill-3" fill="#0D3858" points="213.8926 161.27 44.6336 161.27 44.6346 56.759 213.8926 56.758"></polygon>
            <path d="M0.169,169.104 C0.062,169.848 0,170.617 0,171.403 C0,178.052 4.034,183.438 9.007,183.438 L249.522,183.438 C254.494,183.438 258.525,178.052 258.525,171.403 C258.525,170.617 258.466,169.848 258.356,169.103 L0.169,169.104 Z" id="Fill-5" fill="#FFFAFA"></path>
            <path d="M0.7744,176.271 C2.1744,180.49 5.3284,183.438 9.0064,183.438 L249.5214,183.438 C253.1984,183.438 256.3534,180.49 257.7544,176.271 L0.7744,176.271 Z" id="Fill-7" fill="#000000"></path>
            <g id="Group-45" transform="translate(0.000000, 0.438000)">
                <polygon id="Fill-9" fill="#AAC247" points="95.7813 68.2148 53.4033 68.2158 53.4043 66.1088 95.7803 66.1088"></polygon>
                <polygon id="Fill-11" fill="#EFAA1B" points="95.7813 74.5361 53.4033 74.5361 53.4043 72.4311 95.7813 72.4321"></polygon>
                <polygon id="Fill-13" fill="#DB3F11" points="95.7803 80.3925 53.4033 80.3915 53.4043 78.2845 95.7813 78.2865"></polygon>
                <polygon id="Fill-15" fill="#AAC247" points="95.7813 134.7881 53.4033 134.7881 53.4033 132.6821 95.7813 132.6811"></polygon>
                <polygon id="Fill-17" fill="#AAC247" points="95.7813 127.8427 53.4033 127.8427 53.4033 125.7367 95.7813 125.7357"></polygon>
                <polygon id="Fill-19" fill="#AAC247" points="95.7803 141.9658 53.4033 141.9658 53.4043 139.8608 95.7813 139.8608"></polygon>
                <polygon id="Fill-21" fill="#EFAA1B" points="146.3545 93.7383 103.9785 93.7393 103.9785 91.6293 146.3545 91.6293"></polygon>
                <polygon id="Fill-23" fill="#AAC247" points="101.6348 93.7383 59.2578 93.7393 59.2578 91.6293 101.6348 91.6293"></polygon>
                <polygon id="Fill-25" fill="#EFAA1B" points="101.6358 99.5898 59.2578 99.5898 59.2578 97.4838 101.6348 97.4838"></polygon>
                <polygon id="Fill-27" fill="#AAC247" points="123.878 99.5908 103.979 99.5898 103.979 97.4838 123.877 97.4838"></polygon>
                <polygon id="Fill-29" fill="#AAC247" points="101.6358 110.915 59.2578 110.915 59.2568 108.809 101.6358 108.81"></polygon>
                <polygon id="Fill-31" fill="#EFAA1B" points="123.878 110.915 103.978 110.915 103.979 108.81 123.878 108.809"></polygon>
                <polygon id="Fill-33" fill="#EFAA1B" points="174.4502 105.2099 154.5502 105.2109 154.5492 103.1029 174.4512 103.1039"></polygon>
                <polygon id="Fill-35" fill="#B8DADA" points="150.8047 86.9472 59.2577 86.9462 59.2567 84.8402 150.8037 84.8412"></polygon>
                <polygon id="Fill-37" fill="#B8DADA" points="150.8037 105.2099 59.2567 105.2099 59.2577 103.1029 150.8047 103.1029"></polygon>
                <polygon id="Fill-39" fill="#AAC247" points="174.4512 117.6181 154.5492 117.6181 154.5492 115.5101 174.4512 115.5091"></polygon>
                <mask id="mask-2" fill="white">
                    <use xlink:href="#path-1"></use>
                </mask>
                <g id="Clip-42"></g>
                <polygon id="Fill-41" fill="#AAC247" mask="url(#mask-2)" points="59.258 117.618 150.805 117.618 150.805 115.509 59.258 115.509"></polygon>
                <polygon id="Fill-43" fill="#C44119" mask="url(#mask-2)" points="148.698 147.821 168.599 147.821 168.599 145.712 148.698 145.712"></polygon>
                <polygon id="Fill-44" fill="#6BB1CA" mask="url(#mask-2)" points="144.9502 147.8222 53.4032 147.8212 53.4032 145.7122 144.9502 145.7122"></polygon>
            </g>
            <path d="M55.6485,172.685 C55.6485,173.609 54.9015,174.353 53.9815,174.353 C53.0605,174.353 52.3115,173.609 52.3125,172.685 C52.3115,171.765 53.0595,171.017 53.9815,171.017 C54.9015,171.017 55.6475,171.765 55.6485,172.685" id="Fill-46" fill="#00CCE1"></path>
            <path d="M45.0547,172.685 C45.0547,173.609 44.3077,174.354 43.3857,174.353 C42.4637,174.353 41.7187,173.61 41.7187,172.685 C41.7187,171.765 42.4627,171.017 43.3857,171.017 C44.3077,171.018 45.0537,171.765 45.0547,172.685" id="Fill-48" fill="#FF80E9"></path>
            <path d="M50.2637,172.685 C50.2637,173.609 49.5157,174.353 48.5967,174.353 C47.6737,174.353 46.9277,173.609 46.9267,172.686 C46.9277,171.765 47.6737,171.017 48.5967,171.017 C49.5157,171.017 50.2627,171.765 50.2637,172.685" id="Fill-50" fill="#00C580"></path>
            <path d="M39.2608,172.685 C39.2608,173.525 38.5768,174.208 37.7378,174.207 L24.7408,174.208 C23.9048,174.208 23.2218,173.525 23.2208,172.685 C23.2218,171.845 23.9048,171.165 24.7418,171.165 L37.7368,171.166 C38.5768,171.165 39.2608,171.845 39.2608,172.685" id="Fill-52" fill="#000000"></path>
            <path d="M131.7256,52.7339 C131.7266,54.0929 130.6236,55.1969 129.2626,55.1969 C127.9016,55.1969 126.7956,54.0929 126.7966,52.7349 C126.7966,51.3729 127.9016,50.2699 129.2626,50.2699 C130.6236,50.2699 131.7266,51.3729 131.7256,52.7339" id="Fill-54" fill="#000000"></path>
            <path d="M194.3067,11.9663 C201.4527,7.8413 210.5877,10.2883 214.7137,17.4343 C218.8387,24.5783 216.3907,33.7153 209.2447,37.8403 C202.0997,41.9653 192.9637,39.5183 188.8387,32.3733 C184.7127,25.2273 187.1607,16.0913 194.3067,11.9663" id="Fill-56" fill="#FFCD5C"></path>
            <path d="M196.1114,15.0923 C201.5304,11.9643 208.4584,13.8213 211.5874,19.2393 C214.7154,24.6573 212.8584,31.5863 207.4404,34.7153 C202.0224,37.8423 195.0934,35.9853 191.9654,30.5673 C188.8384,25.1483 190.6934,18.2203 196.1114,15.0923" id="Fill-58" fill="#F4B24C"></path>
            <path d="M203.4707,25.7212 L204.7157,27.8782 C205.4297,27.2492 205.5807,26.5152 205.3007,26.0302 C204.9367,25.5222 204.2957,25.5322 203.4707,25.7212 Z M200.2577,23.7682 L199.1367,21.8262 C198.4977,22.3392 198.2847,22.9652 198.5967,23.5042 C198.8997,23.9042 199.4877,23.9242 200.2577,23.7682 Z M204.3657,30.8822 C202.5477,31.7162 200.9347,31.7852 199.5747,31.4212 L199.8397,28.8952 C200.8067,29.2002 202.0347,29.2092 203.2367,28.8032 L201.7737,26.2702 C199.8547,26.8032 197.6797,27.2682 196.4037,25.0582 C195.4697,23.4412 195.9537,21.2922 198.0077,19.7472 L197.1357,18.2382 L198.6467,17.3662 L199.5497,18.9292 C200.9357,18.3442 202.3497,18.1762 203.7317,18.4562 L203.4337,20.9272 C202.5287,20.7302 201.6417,20.8112 200.7627,21.0322 L202.0697,23.2952 C203.9907,22.7632 206.2497,22.3202 207.5257,24.5292 C208.5537,26.3082 208.1767,28.3952 205.9597,30.0342 L206.7997,31.4892 L205.2897,32.3612 L204.4187,30.8522 L204.3657,30.8822 Z" id="Fill-60" fill="#FFCD5C"></path>
            <polygon id="Fill-62" fill="#F4B24C" points="194.4102 12.768 194.9492 12.456 196.0072 14.289 195.4692 14.601"></polygon>
            <polygon id="Fill-64" fill="#F4B24C" points="207.544 35.5151 208.082 35.2041 209.142 37.0381 208.603 37.3491"></polygon>
            <polygon id="Fill-66" fill="#F4B24C" points="192.335 17.3843 190.714 16.0233 191.114 15.5463 192.735 16.9063"></polygon>
            <polygon id="Fill-68" fill="#F4B24C" points="212.4375 34.2588 210.8165 32.8978 211.2155 32.4208 212.8375 33.7818"></polygon>
            <polygon id="Fill-70" fill="#F4B24C" points="190.3184 21.0351 188.3284 20.3121 188.5434 19.7261 190.5314 20.4501"></polygon>
            <polygon id="Fill-72" fill="#F4B24C" points="214.9492 30.0591 212.9612 29.3351 213.1742 28.7501 215.1632 29.4731"></polygon>
            <polygon id="Fill-74" fill="#F4B24C" points="189.6836 25.1909 187.5676 25.1909 187.5676 24.5689 189.6836 24.5679"></polygon>
            <polygon id="Fill-76" fill="#F4B24C" points="215.9248 25.2334 213.8088 25.2344 213.8088 24.6104 215.9248 24.6104"></polygon>
            <polygon id="Fill-78" fill="#F4B24C" points="190.5264 29.3559 188.5374 30.0799 188.3244 29.4949 190.3134 28.7709"></polygon>
            <polygon id="Fill-80" fill="#F4B24C" points="215.1709 20.3301 213.1819 21.0541 212.9689 20.4691 214.9579 19.7451"></polygon>
            <polygon id="Fill-82" fill="#F4B24C" points="192.6953 32.8994 191.0743 34.2594 190.6743 33.7824 192.2963 32.4224"></polygon>
            <polygon id="Fill-84" fill="#F4B24C" points="212.8291 16.0679 211.2081 17.4279 210.8081 16.9509 212.4291 15.5899"></polygon>
            <polygon id="Fill-86" fill="#F4B24C" points="196.0186 35.541 194.9596 37.374 194.4206 37.062 195.4796 35.23"></polygon>
            <polygon id="Fill-88" fill="#F4B24C" points="209.0957 12.7969 208.0387 14.6299 207.4987 14.3189 208.5567 12.4859"></polygon>
            <polygon id="Fill-90" fill="#F4B24C" points="200.0117 36.8677 199.6437 38.9507 199.0307 38.8437 199.3997 36.7587"></polygon>
            <polygon id="Fill-92" fill="#F4B24C" points="204.5108 11.0224 204.1438 13.1064 203.5298 12.9984 203.8978 10.9134"></polygon>
            <polygon id="Fill-94" fill="#F4B24C" points="204.1817 36.7324 204.5477 38.8154 203.9357 38.9244 203.5687 36.8404"></polygon>
            <polygon id="Fill-96" fill="#F4B24C" points="199.6172 10.8828 199.9852 12.9668 199.3722 13.0758 199.0042 10.9908"></polygon>
            <path d="M193.6651,31.0229 C190.5531,25.6319 192.4221,18.6599 197.8111,15.5479 C200.2371,14.1469 202.9461,13.7339 205.5421,14.2479 C202.5491,13.1719 199.0761,13.3799 196.1111,15.0919 C190.7211,18.2049 188.8531,25.1769 191.9661,30.5669 C193.6771,33.5309 196.5811,35.4489 199.7101,36.0139 C197.2591,35.1289 195.0651,33.4489 193.6651,31.0229" id="Fill-98" fill="#231F20"></path>
            <path d="M183.9326,79.9863 C192.1836,79.9863 198.8716,86.6743 198.8716,94.9253 C198.8716,103.1753 192.1836,109.8633 183.9326,109.8633 C175.6816,109.8623 168.9946,103.1753 168.9946,94.9253 C168.9946,86.6743 175.6816,79.9863 183.9326,79.9863" id="Fill-100" fill="#FFCD5C"></path>
            <path d="M183.9326,83.5962 C190.1896,83.5962 195.2606,88.6682 195.2606,94.9252 C195.2606,101.1812 190.1896,106.2542 183.9326,106.2542 C177.6766,106.2542 172.6056,101.1812 172.6056,94.9252 C172.6056,88.6682 177.6766,83.5962 183.9326,83.5962" id="Fill-102" fill="#F4B24C"></path>
            <path d="M184.9912,96.4809 L184.9912,98.9709 C185.9242,98.7839 186.4232,98.2239 186.4232,97.6629 C186.3602,97.0419 185.8012,96.7289 184.9912,96.4809 Z M183.1852,93.1829 L183.1852,90.9409 C182.3762,91.0659 181.8792,91.5019 181.8792,92.1239 C181.9412,92.6219 182.4402,92.9329 183.1852,93.1829 Z M183.1852,101.3979 C181.1942,101.2109 179.7622,100.4639 178.7672,99.4689 L180.2612,97.4139 C180.9452,98.1619 182.0042,98.7839 183.2472,99.0329 L183.2472,96.1079 C181.3182,95.6089 179.2022,94.9249 179.2022,92.3729 C179.2022,90.5049 180.6962,88.8869 183.2472,88.5759 L183.2472,86.8329 L184.9912,86.8329 L184.9912,88.6379 C186.4852,88.8249 187.7932,89.3859 188.8492,90.3199 L187.3562,92.3109 C186.6712,91.6879 185.8622,91.3139 184.9912,91.0659 L184.9912,93.6789 C186.9212,94.1779 189.0992,94.9249 189.0992,97.4759 C189.0992,99.5309 187.7292,101.1489 184.9912,101.4599 L184.9912,103.1399 L183.2472,103.1399 L183.2472,101.3979 L183.1852,101.3979 Z" id="Fill-104" fill="#FFCD5C"></path>
            <mask id="mask-4" fill="white">
                <use xlink:href="#path-3"></use>
            </mask>
            <g id="Clip-107"></g>
            <polygon id="Fill-106" fill="#F4B24C" mask="url(#mask-4)" points="183.622 82.849 184.244 82.849 184.244 80.733 183.622 80.733"></polygon>
            <polygon id="Fill-108" fill="#F4B24C" mask="url(#mask-4)" points="183.622 109.117 184.244 109.117 184.244 106.999 183.622 106.999"></polygon>
            <polygon id="Fill-109" fill="#F4B24C" mask="url(#mask-4)" points="179.5166 83.6929 178.7926 81.7039 179.3776 81.4909 180.1016 83.4799"></polygon>
            <polygon id="Fill-110" fill="#F4B24C" mask="url(#mask-4)" points="188.4883 108.3574 187.7643 106.3684 188.3493 106.1554 189.0733 108.1454"></polygon>
            <polygon id="Fill-111" fill="#F4B24C" mask="url(#mask-4)" points="175.9444 85.8467 174.5834 84.2247 175.0604 83.8257 176.4224 85.4467"></polygon>
            <polygon id="Fill-112" fill="#F4B24C" mask="url(#mask-4)" points="192.7627 105.9765 191.4037 104.3555 191.8797 103.9555 193.2417 105.5765"></polygon>
            <polygon id="Fill-113" fill="#F4B24C" mask="url(#mask-4)" points="173.3174 89.1279 171.4834 88.0699 171.7954 87.5309 173.6284 88.5879"></polygon>
            <polygon id="Fill-114" fill="#F4B24C" mask="url(#mask-4)" points="196.0215 102.2851 194.1875 101.2281 194.4995 100.6881 196.3325 101.7461"></polygon>
            <polygon id="Fill-115" fill="#F4B24C" mask="url(#mask-4)" points="171.9639 93.1557 169.8799 92.7887 169.9869 92.1757 172.0709 92.5427"></polygon>
            <polygon id="Fill-116" fill="#F4B24C" mask="url(#mask-4)" points="197.8194 97.6616 195.7354 97.2946 195.8424 96.6816 197.9274 97.0486"></polygon>
            <polygon id="Fill-117" fill="#F4B24C" mask="url(#mask-4)" points="172.0713 97.3096 169.9873 97.6776 169.8793 97.0636 171.9633 96.6966"></polygon>
            <polygon id="Fill-118" fill="#F4B24C" mask="url(#mask-4)" points="197.9229 92.7998 195.8389 93.1678 195.7309 92.5538 197.8159 92.1868"></polygon>
            <polygon id="Fill-119" fill="#F4B24C" mask="url(#mask-4)" points="173.628 101.2583 171.795 102.3173 171.483 101.7773 173.316 100.7203"></polygon>
            <polygon id="Fill-120" fill="#F4B24C" mask="url(#mask-4)" points="196.3252 88.1006 194.4932 89.1596 194.1812 88.6206 196.0132 87.5616"></polygon>
            <polygon id="Fill-121" fill="#F4B24C" mask="url(#mask-4)" points="176.4229 104.4038 175.0629 106.0248 174.5849 105.6248 175.9459 104.0038"></polygon>
            <polygon id="Fill-122" fill="#F4B24C" mask="url(#mask-4)" points="193.2412 84.271 191.8822 85.893 191.4032 85.492 192.7642 83.87"></polygon>
            <polygon id="Fill-123" fill="#F4B24C" mask="url(#mask-4)" points="180.1016 106.3721 179.3766 108.3601 178.7926 108.1471 179.5166 106.1591"></polygon>
            <polygon id="Fill-124" fill="#F4B24C" mask="url(#mask-4)" points="189.0733 81.7036 188.3503 83.6936 187.7643 83.4806 188.4883 81.4906"></polygon>
            <path d="M173.8487,96.1694 C173.8487,89.9454 178.9537,84.8414 185.1767,84.8404 C187.9787,84.8404 190.5317,85.8374 192.5227,87.5794 C190.4677,85.1514 187.3567,83.5964 183.9327,83.5964 C177.7077,83.5964 172.6047,88.7004 172.6057,94.9254 C172.6047,98.3474 174.1607,101.4604 176.5887,103.5144 C174.9087,101.5224 173.8487,98.9704 173.8487,96.1694" id="Fill-125" fill="#231F20" mask="url(#mask-4)"></path>
            <path d="M219.9268,52.0918 C227.0718,56.2168 229.5208,65.3528 225.3948,72.4988 C221.2698,79.6428 212.1328,82.0918 204.9888,77.9668 C197.8428,73.8408 195.3948,64.7048 199.5198,57.5598 C203.6448,50.4138 212.7808,47.9658 219.9268,52.0918" id="Fill-126" fill="#FFCD5C" mask="url(#mask-4)"></path>
            <path d="M218.1221,55.2178 C223.5401,58.3458 225.3951,65.2748 222.2681,70.6928 C219.1401,76.1108 212.2111,77.9678 206.7921,74.8408 C201.3751,71.7118 199.5181,64.7828 202.6471,59.3648 C205.7751,53.9468 212.7031,52.0898 218.1221,55.2178" id="Fill-127" fill="#F4B24C" mask="url(#mask-4)"></path>
            <path d="M212.5957,66.9057 L211.3507,69.0617 C212.2527,69.3657 212.9637,69.1307 213.2437,68.6447 C213.5007,68.0757 213.1727,67.5257 212.5957,66.9057 Z M212.6807,63.1467 L213.8017,61.2047 C213.0377,60.9087 212.3907,61.0367 212.0787,61.5757 C211.8837,62.0377 212.1597,62.5577 212.6807,63.1467 Z M208.5737,70.2607 C206.9427,69.1037 206.0757,67.7407 205.7117,66.3807 L208.0327,65.3477 C208.2517,66.3377 208.8577,67.4057 209.8097,68.2437 L211.2717,65.7107 C209.8507,64.3147 208.3607,62.6637 209.6367,60.4527 C210.5707,58.8357 212.6737,58.1807 215.0377,59.1877 L215.9087,57.6777 L217.4197,58.5497 L216.5167,60.1137 C217.7177,61.0217 218.5697,62.1617 219.0177,63.4987 L216.7297,64.4757 C216.4477,63.5937 215.9337,62.8667 215.3027,62.2157 L213.9957,64.4787 C215.4177,65.8757 216.9317,67.6127 215.6567,69.8217 C214.6287,71.6007 212.6337,72.3177 210.1057,71.2177 L209.2657,72.6727 L207.7557,71.8007 L208.6267,70.2917 L208.5737,70.2607 Z" id="Fill-128" fill="#FFCD5C" mask="url(#mask-4)"></path>
            <polygon id="Fill-129" fill="#F4B24C" mask="url(#mask-4)" points="219.2832 52.5825 219.8222 52.8935 218.7642 54.7265 218.2252 54.4155"></polygon>
            <polygon id="Fill-130" fill="#F4B24C" mask="url(#mask-4)" points="206.1504 75.3296 206.6894 75.6416 205.6304 77.4756 205.0914 77.1636"></polygon>
            <polygon id="Fill-131" fill="#F4B24C" mask="url(#mask-4)" points="214.2481 53.0932 214.6161 51.0092 215.2291 51.1162 214.8621 53.2012"></polygon>
            <polygon id="Fill-132" fill="#F4B24C" mask="url(#mask-4)" points="209.6856 78.9394 210.0536 76.8554 210.6666 76.9624 210.2986 79.0474"></polygon>
            <polygon id="Fill-133" fill="#F4B24C" mask="url(#mask-4)" points="210.0782 53.1723 209.7102 51.0873 210.3242 50.9803 210.6912 53.0643"></polygon>
            <polygon id="Fill-134" fill="#F4B24C" mask="url(#mask-4)" points="214.5782 79.0146 214.2122 76.9316 214.8242 76.8236 215.1922 78.9076"></polygon>
            <polygon id="Fill-135" fill="#F4B24C" mask="url(#mask-4)" points="206.1621 54.7007 205.1031 52.8677 205.6421 52.5557 206.7011 54.3887"></polygon>
            <polygon id="Fill-136" fill="#F4B24C" mask="url(#mask-4)" points="219.2461 77.4468 218.1861 75.6148 218.7261 75.3028 219.7851 77.1358"></polygon>
            <polygon id="Fill-137" fill="#F4B24C" mask="url(#mask-4)" points="202.9756 57.5122 201.3546 56.1522 201.7546 55.6752 203.3756 57.0352"></polygon>
            <polygon id="Fill-138" fill="#F4B24C" mask="url(#mask-4)" points="223.1153 74.3423 221.4933 72.9823 221.8933 72.5053 223.5143 73.8653"></polygon>
            <polygon id="Fill-139" fill="#F4B24C" mask="url(#mask-4)" points="200.9922 61.1631 199.0042 60.4391 199.2172 59.8541 201.2052 60.5791"></polygon>
            <polygon id="Fill-140" fill="#F4B24C" mask="url(#mask-4)" points="225.6358 70.1836 223.6478 69.4596 223.8598 68.8736 225.8488 69.5986"></polygon>
            <polygon id="Fill-141" fill="#F4B24C" mask="url(#mask-4)" points="200.3662 65.3613 198.2492 65.3613 198.2492 64.7383 200.3652 64.7393"></polygon>
            <polygon id="Fill-142" fill="#F4B24C" mask="url(#mask-4)" points="226.6016 65.3149 224.4856 65.3159 224.4856 64.6929 226.6016 64.6929"></polygon>
            <polygon id="Fill-143" fill="#F4B24C" mask="url(#mask-4)" points="201.2139 69.4829 199.2259 70.2059 199.0109 69.6209 201.0009 68.8979"></polygon>
            <polygon id="Fill-144" fill="#F4B24C" mask="url(#mask-4)" points="225.8457 60.4565 223.8567 61.1815 223.6437 60.5945 225.6327 59.8715"></polygon>
            <polygon id="Fill-145" fill="#F4B24C" mask="url(#mask-4)" points="203.4151 73.0268 201.7941 74.3858 201.3941 73.9098 203.0161 72.5498"></polygon>
            <polygon id="Fill-146" fill="#F4B24C" mask="url(#mask-4)" points="223.5196 56.1489 221.8986 57.5109 221.4986 57.0339 223.1196 55.6719"></polygon>
            <path d="M203.1026,61.0644 C206.2136,55.6744 213.1866,53.8064 218.5776,56.9174 C221.0026,58.3184 222.7146,60.4574 223.5686,62.9624 C223.0036,59.8324 221.0856,56.9294 218.1226,55.2174 C212.7306,52.1064 205.7586,53.9744 202.6476,59.3654 C200.9356,62.3294 200.7266,65.8034 201.8016,68.7954 C201.3426,66.2304 201.7016,63.4904 203.1026,61.0644" id="Fill-147" fill="#231F20" mask="url(#mask-4)"></path>
            <path d="M179.5645,144.1006 L132.9315,144.1006 C131.6035,144.1006 130.5275,145.1766 130.5275,146.5056 C130.5275,147.8336 131.6035,148.9106 132.9315,148.9106 L179.5645,148.9106 C180.8935,148.9106 181.9695,147.8336 181.9695,146.5056 C181.9695,145.1766 180.8935,144.1006 179.5645,144.1006" id="Fill-148" fill="#4D5BA1" mask="url(#mask-4)"></path>
            <path d="M156.2129,1.0005 L156.2129,72.1055 C156.2129,75.5115 153.4459,78.2775 150.0409,78.2775 L115.0639,78.2775 C111.6579,78.2775 108.8909,75.5115 108.8909,72.1055 L108.8909,1.0005 L111.9769,4.0855 L114.9119,1.1315 L117.8479,4.0855 L120.7839,1.1315 L123.7379,4.0855 L126.6729,1.1315 L129.6089,4.0855 L132.5449,1.1315 L135.4989,4.0855 L138.4349,1.1315 L141.3699,4.0855 L144.3069,1.1315 L147.2599,4.0855 L150.1959,1.1315 L153.1319,4.0855 L156.2129,1.0005 Z" id="Fill-149" fill="#E4E3E4" mask="url(#mask-4)"></path>
            <path d="M127.4097,24.8017 C123.9987,24.8017 121.2357,27.5667 121.2357,30.9757 L121.2357,72.0987 C121.2357,75.5077 118.4777,78.2727 115.0617,78.2727 L166.5687,78.2727 C169.9797,78.2727 172.7427,75.5077 172.7427,72.0987 L172.7427,24.8017 L127.4097,24.8017 Z" id="Fill-150" fill="#CECED0" mask="url(#mask-4)"></path>
            <path d="M172.7393,24.8003 L127.4073,24.8003 C130.8243,24.8003 133.5823,27.5673 133.5823,30.9743 L133.5823,146.5053 L178.9133,146.5053 L178.9133,30.9743 C178.9133,27.5653 176.1483,24.8003 172.7393,24.8003" id="Fill-151" fill="#F9FAFF" mask="url(#mask-4)"></path>
            <polygon id="Fill-152" fill="#CECED0" mask="url(#mask-4)" points="138.112 40.876 174.383 40.876 174.383 38.152 138.112 38.152"></polygon>
            <polygon id="Fill-153" fill="#CECED0" mask="url(#mask-4)" points="138.112 47.423 174.383 47.423 174.383 44.699 138.112 44.699"></polygon>
            <polygon id="Fill-154" fill="#CECED0" mask="url(#mask-4)" points="138.112 53.972 162.021 53.972 162.021 51.249 138.112 51.249"></polygon>
            <polygon id="Fill-155" fill="#CECED0" mask="url(#mask-4)" points="138.112 139.179 153.988 139.179 153.988 133.725 138.112 133.725"></polygon>
            <polygon id="Fill-156" fill="#CECED0" mask="url(#mask-4)" points="138.112 127.731 153.988 127.731 153.988 122.277 138.112 122.277"></polygon>
            <polygon id="Fill-157" fill="#CECED0" mask="url(#mask-4)" points="158.507 139.172 174.383 139.172 174.383 124.005 158.507 124.005"></polygon>
            <polygon id="Fill-158" fill="#CECED0" mask="url(#mask-4)" points="138.112 66.429 174.383 66.429 174.383 63.705 138.112 63.705"></polygon>
            <polygon id="Fill-159" fill="#CECED0" mask="url(#mask-4)" points="138.112 73.035 174.383 73.035 174.383 70.311 138.112 70.311"></polygon>
            <polygon id="Fill-160" fill="#CECED0" mask="url(#mask-4)" points="138.112 79.64 174.383 79.64 174.383 76.917 138.112 76.917"></polygon>
            <polygon id="Fill-161" fill="#CECED0" mask="url(#mask-4)" points="138.112 86.247 174.383 86.247 174.383 83.523 138.112 83.523"></polygon>
            <polygon id="Fill-162" fill="#CECED0" mask="url(#mask-4)" points="138.112 92.871 164.029 92.871 164.029 90.147 138.112 90.147"></polygon>
            <path d="M92.1201,86.7212 L47.0191,70.3052 C44.5991,69.4252 41.8981,70.6842 41.0151,73.1042 L31.4081,99.5052 C30.5271,101.9242 31.7861,104.6262 34.2061,105.5072 L79.3091,121.9232 C81.7281,122.8042 84.4291,121.5442 85.3081,119.1242 L94.9181,92.7232 C95.7961,90.3032 94.5401,87.6012 92.1201,86.7212" id="Fill-163" fill="#FF004F" mask="url(#mask-4)"></path>
            <polygon id="Fill-164" fill="#1A1A1A" mask="url(#mask-4)" points="91.3174 102.6225 37.4144 83.0035 39.9994 75.9015 93.9004 95.5185"></polygon>
            <polygon id="Fill-165" fill="#FFFFFF" mask="url(#mask-4)" points="88.4849 110.394 54.1769 97.906 55.8029 93.434 90.1129 105.922"></polygon>
            <polygon id="Fill-166" fill="#FFFFFF" mask="url(#mask-4)" points="52.2334 97.1982 38.8434 92.3252 40.4714 87.8542 53.8614 92.7272"></polygon>
            <path d="M62.9561,106.2881 L110.9541,106.2881 C113.5281,106.2881 115.6341,108.3951 115.6341,110.9701 L115.6341,139.0651 C115.6341,141.6401 113.5281,143.7471 110.9541,143.7471 L62.9561,143.7471 C60.3841,143.7471 58.2751,141.6401 58.2751,139.0651 L58.2751,110.9701 C58.2751,108.3951 60.3841,106.2881 62.9561,106.2881" id="Fill-167" fill="#29CEC7" mask="url(#mask-4)"></path>
            <polygon id="Fill-168" fill="#1A1A1A" mask="url(#mask-4)" points="58.275 121.506 115.634 121.506 115.634 113.946 58.275 113.946"></polygon>
            <polygon id="Fill-169" fill="#FFFFFF" mask="url(#mask-4)" points="58.276 129.774 94.787 129.774 94.787 125.018 58.276 125.018"></polygon>
            <polygon id="Fill-170" fill="#FFFFFF" mask="url(#mask-4)" points="96.854 129.774 111.104 129.774 111.104 125.018 96.854 125.018"></polygon>
        </g>
    </g>
</svg>