<?xml version="1.0" encoding="UTF-8"?>
<svg width="350px" height="250px" viewBox="0 0 350 250" version="1.1" xmlns="http://www.w3.org/2000/svg" xmlns:xlink="http://www.w3.org/1999/xlink">
    <!-- Generator: Sketch 49 (51002) - http://www.bohemiancoding.com/sketch -->
    <title>3of3</title>
    <desc>Created with Sketch.</desc>
    <defs>
        <polygon id="path-1" points="0.0002 0.73015 156.367 0.73015 156.367 160.9999 0.0002 160.9999"></polygon>
        <polygon id="path-3" points="0.0003 0.394255233 156.367 0.394255233 156.367 98 0.0003 98"></polygon>
    </defs>
    <g id="3of3" stroke="none" stroke-width="1" fill="none" fill-rule="evenodd">
        <g id="Page-1" transform="translate(97.000000, 44.000000)">
            <g id="Group-3" transform="translate(0.000000, 0.270000)">
                <mask id="mask-2" fill="white">
                    <use xlink:href="#path-1"></use>
                </mask>
                <g id="Clip-2"></g>
                <path d="M81.5342,1.8979 C79.5712,0.3409 76.7952,0.3409 74.8332,1.8979 L1.0202,63.9439 C0.3762,64.4559 0.0002,65.2339 0.0002,66.0569 L0.0002,158.3039 C0.0002,159.7929 1.2072,160.9999 2.6952,160.9999 L153.6712,160.9999 C155.1602,160.9999 156.3672,159.7929 156.3672,158.3039 L156.3672,66.0569 C156.3672,65.2339 155.9912,64.4559 155.3462,63.9439 L81.5342,1.8979 Z" id="Fill-1" fill="#EC9724" mask="url(#mask-2)"></path>
            </g>
            <path d="M137.0898,123.5258 L19.2768,123.5258 L19.2768,21.0788 C19.2768,19.6638 20.4238,18.5178 21.8378,18.5178 L134.5288,18.5178 C135.9438,18.5178 137.0898,19.6638 137.0898,21.0788 L137.0898,123.5258 Z" id="Fill-4" fill="#EDEDED"></path>
            <g id="Group-8" transform="translate(0.000000, 63.270000)">
                <mask id="mask-4" fill="white">
                    <use xlink:href="#path-3"></use>
                </mask>
                <g id="Clip-7"></g>
                <path d="M2.6953,98 L153.6713,98 C155.1603,98 156.3673,96.793 156.3673,95.304 L156.3673,3.095 C156.3673,0.981 154.0453,-0.311 152.2493,0.804 L0.0003,95.304 C0.0003,96.793 1.2073,98 2.6953,98" id="Fill-6" fill="#FFD766" mask="url(#mask-4)"></path>
            </g>
            <path d="M0,158.5737 C0,160.0627 1.207,161.2697 2.695,161.2697 L153.671,161.2697 C155.16,161.2697 156.367,160.0627 156.367,158.5737 L4.117,64.0737 C2.321,62.9597 0,64.2517 0,66.3647 L0,158.5737 Z" id="Fill-9" fill="#FFD766"></path>
            <path d="M121.1768,108.5439 L85.3968,45.0269 C82.3458,39.4809 74.0248,39.4809 70.9748,45.0269 L35.1928,108.5439 C32.1438,114.0919 36.0268,121.0259 42.4058,121.0259 L113.6888,121.0259 C120.3458,120.7489 124.2288,114.0919 121.1768,108.5439" id="Fill-11" fill="#E14C4B"></path>
            <path d="M71.4258,75.9594 L73.9908,92.9384 C74.3128,94.8604 75.9128,96.4624 78.1548,96.4624 C80.0778,96.4624 81.9998,94.8604 82.3198,92.9384 L84.8838,75.9594 C85.5248,71.7954 82.3198,68.2724 78.1548,68.2724 C73.9908,68.2724 71.1068,71.7954 71.4258,75.9594" id="Fill-13" fill="#FFFFFF"></path>
            <path d="M78.1572,99.6665 C80.7282,99.6665 82.8142,101.7135 82.8142,104.2395 C82.8142,106.7655 80.7282,108.8125 78.1572,108.8125 C75.5852,108.8125 73.5032,106.7655 73.5032,104.2395 C73.5032,101.7135 75.5852,99.6665 78.1572,99.6665" id="Fill-15" fill="#FFFFFF"></path>
        </g>
    </g>
</svg>