<?xml version="1.0" encoding="UTF-8"?>
<svg width="234px" height="234px" viewBox="0 0 234 234" version="1.1" xmlns="http://www.w3.org/2000/svg" xmlns:xlink="http://www.w3.org/1999/xlink">
    <!-- Generator: Sketch 49 (51002) - http://www.bohemiancoding.com/sketch -->
    <title>1of6</title>
    <desc>Created with Sketch.</desc>
    <defs>
        <linearGradient x1="3.731814%" y1="32.41098%" x2="90.6031186%" y2="67.6446022%" id="linearGradient-1">
            <stop stop-color="#636AF6" offset="0%"></stop>
            <stop stop-color="#44E9FC" offset="100%"></stop>
        </linearGradient>
        <polygon id="path-2" points="122.942286 33 200.884573 78 200.884573 168 122.942286 213 45 168 45 78"></polygon>
        <filter x="-55.8%" y="-56.0%" width="211.7%" height="272.0%" filterUnits="objectBoundingBox" id="filter-3">
            <feOffset dx="0" dy="4" in="SourceAlpha" result="shadowOffsetOuter1"></feOffset>
            <feGaussianBlur stdDeviation="2.5" in="shadowOffsetOuter1" result="shadowBlurOuter1"></feGaussianBlur>
            <feColorMatrix values="0 0 0 0 0   0 0 0 0 0   0 0 0 0 0  0 0 0 0.2 0" type="matrix" in="shadowBlurOuter1" result="shadowMatrixOuter1"></feColorMatrix>
            <feMorphology radius="1.5" operator="dilate" in="SourceAlpha" result="shadowSpreadOuter2"></feMorphology>
            <feOffset dx="0" dy="3" in="shadowSpreadOuter2" result="shadowOffsetOuter2"></feOffset>
            <feGaussianBlur stdDeviation="7" in="shadowOffsetOuter2" result="shadowBlurOuter2"></feGaussianBlur>
            <feColorMatrix values="0 0 0 0 0   0 0 0 0 0   0 0 0 0 0  0 0 0 0.12 0" type="matrix" in="shadowBlurOuter2" result="shadowMatrixOuter2"></feColorMatrix>
            <feMorphology radius="0.5" operator="dilate" in="SourceAlpha" result="shadowSpreadOuter3"></feMorphology>
            <feOffset dx="0" dy="8" in="shadowSpreadOuter3" result="shadowOffsetOuter3"></feOffset>
            <feGaussianBlur stdDeviation="5" in="shadowOffsetOuter3" result="shadowBlurOuter3"></feGaussianBlur>
            <feColorMatrix values="0 0 0 0 0   0 0 0 0 0   0 0 0 0 0  0 0 0 0.14 0" type="matrix" in="shadowBlurOuter3" result="shadowMatrixOuter3"></feColorMatrix>
            <feMerge>
                <feMergeNode in="shadowMatrixOuter1"></feMergeNode>
                <feMergeNode in="shadowMatrixOuter2"></feMergeNode>
                <feMergeNode in="shadowMatrixOuter3"></feMergeNode>
                <feMergeNode in="SourceGraphic"></feMergeNode>
            </feMerge>
        </filter>
        <filter x="-55.8%" y="-56.0%" width="211.7%" height="272.0%" filterUnits="objectBoundingBox" id="filter-4">
            <feOffset dx="0" dy="4" in="SourceAlpha" result="shadowOffsetOuter1"></feOffset>
            <feGaussianBlur stdDeviation="2.5" in="shadowOffsetOuter1" result="shadowBlurOuter1"></feGaussianBlur>
            <feColorMatrix values="0 0 0 0 0   0 0 0 0 0   0 0 0 0 0  0 0 0 0.2 0" type="matrix" in="shadowBlurOuter1" result="shadowMatrixOuter1"></feColorMatrix>
            <feMorphology radius="1.5" operator="dilate" in="SourceAlpha" result="shadowSpreadOuter2"></feMorphology>
            <feOffset dx="0" dy="3" in="shadowSpreadOuter2" result="shadowOffsetOuter2"></feOffset>
            <feGaussianBlur stdDeviation="7" in="shadowOffsetOuter2" result="shadowBlurOuter2"></feGaussianBlur>
            <feColorMatrix values="0 0 0 0 0   0 0 0 0 0   0 0 0 0 0  0 0 0 0.12 0" type="matrix" in="shadowBlurOuter2" result="shadowMatrixOuter2"></feColorMatrix>
            <feMorphology radius="0.5" operator="dilate" in="SourceAlpha" result="shadowSpreadOuter3"></feMorphology>
            <feOffset dx="0" dy="8" in="shadowSpreadOuter3" result="shadowOffsetOuter3"></feOffset>
            <feGaussianBlur stdDeviation="5" in="shadowOffsetOuter3" result="shadowBlurOuter3"></feGaussianBlur>
            <feColorMatrix values="0 0 0 0 0   0 0 0 0 0   0 0 0 0 0  0 0 0 0.14 0" type="matrix" in="shadowBlurOuter3" result="shadowMatrixOuter3"></feColorMatrix>
            <feMerge>
                <feMergeNode in="shadowMatrixOuter1"></feMergeNode>
                <feMergeNode in="shadowMatrixOuter2"></feMergeNode>
                <feMergeNode in="shadowMatrixOuter3"></feMergeNode>
                <feMergeNode in="SourceGraphic"></feMergeNode>
            </feMerge>
        </filter>
        <filter x="-55.8%" y="-56.0%" width="211.7%" height="272.0%" filterUnits="objectBoundingBox" id="filter-5">
            <feOffset dx="0" dy="4" in="SourceAlpha" result="shadowOffsetOuter1"></feOffset>
            <feGaussianBlur stdDeviation="2.5" in="shadowOffsetOuter1" result="shadowBlurOuter1"></feGaussianBlur>
            <feColorMatrix values="0 0 0 0 0   0 0 0 0 0   0 0 0 0 0  0 0 0 0.2 0" type="matrix" in="shadowBlurOuter1" result="shadowMatrixOuter1"></feColorMatrix>
            <feMorphology radius="1.5" operator="dilate" in="SourceAlpha" result="shadowSpreadOuter2"></feMorphology>
            <feOffset dx="0" dy="3" in="shadowSpreadOuter2" result="shadowOffsetOuter2"></feOffset>
            <feGaussianBlur stdDeviation="7" in="shadowOffsetOuter2" result="shadowBlurOuter2"></feGaussianBlur>
            <feColorMatrix values="0 0 0 0 0   0 0 0 0 0   0 0 0 0 0  0 0 0 0.12 0" type="matrix" in="shadowBlurOuter2" result="shadowMatrixOuter2"></feColorMatrix>
            <feMorphology radius="0.5" operator="dilate" in="SourceAlpha" result="shadowSpreadOuter3"></feMorphology>
            <feOffset dx="0" dy="8" in="shadowSpreadOuter3" result="shadowOffsetOuter3"></feOffset>
            <feGaussianBlur stdDeviation="5" in="shadowOffsetOuter3" result="shadowBlurOuter3"></feGaussianBlur>
            <feColorMatrix values="0 0 0 0 0   0 0 0 0 0   0 0 0 0 0  0 0 0 0.14 0" type="matrix" in="shadowBlurOuter3" result="shadowMatrixOuter3"></feColorMatrix>
            <feMerge>
                <feMergeNode in="shadowMatrixOuter1"></feMergeNode>
                <feMergeNode in="shadowMatrixOuter2"></feMergeNode>
                <feMergeNode in="shadowMatrixOuter3"></feMergeNode>
                <feMergeNode in="SourceGraphic"></feMergeNode>
            </feMerge>
        </filter>
    </defs>
    <g id="1of6" stroke="none" stroke-width="1" fill="none" fill-rule="evenodd">
        <g id="Group" transform="translate(-6.000000, -6.000000)">
            <g id="Polygon-2" transform="translate(122.942286, 123.000000) rotate(-330.000000) translate(-122.942286, -123.000000) ">
                <use fill="#4A90E2" fill-rule="evenodd" xlink:href="#path-2"></use>
                <path stroke="url(#linearGradient-1)" stroke-width="6" d="M122.942286,36.4641016 L48,79.7320508 L48,166.267949 L122.942286,209.535898 L197.884573,166.267949 L197.884573,79.7320508 L122.942286,36.4641016 Z"></path>
            </g>
            <g id="Page-1" filter="url(#filter-3)" transform="translate(69.000000, 89.057714)">
                <polygon id="Fill-1" fill="#EB6100" points="0 7.49665328 77 7.49665328 77 0 0 0"></polygon>
                <polygon id="Fill-2" fill="#FFFFFF" points="0 7.49665328 0 50 5.875375 50 11.9521875 50 77 50 77 7.49665328"></polygon>
                <g id="ic_restore_from_trash_24px" transform="translate(27.500000, 14.814815)" fill="#000000" fill-rule="nonzero">
                    <path d="M22,1.54320988 L16.5,1.54320988 L14.9285714,0 L7.07142857,0 L5.5,1.54320988 L0,1.54320988 L0,4.62962963 L22,4.62962963 L22,1.54320988 Z M1.57142857,6.17283951 L1.57142857,24.691358 C1.57142857,26.3888889 2.98571429,27.7777778 4.71428571,27.7777778 L17.2857143,27.7777778 C19.0142857,27.7777778 20.4285714,26.3888889 20.4285714,24.691358 L20.4285714,6.17283951 L1.57142857,6.17283951 Z" id="Shape"></path>
                </g>
                <g id="Group-15" transform="translate(8.937500, 2.498884)" fill="#FFFFFF">
                    <path d="M12.375,1.24944221 C12.375,1.93913432 11.759,2.49888443 11,2.49888443 C10.241,2.49888443 9.625,1.93913432 9.625,1.24944221 C9.625,0.559750112 10.241,0 11,0 C11.759,0 12.375,0.559750112 12.375,1.24944221" id="Fill-3"></path>
                    <path d="M7.5625,1.24944221 C7.5625,1.93913432 6.9465,2.49888443 6.1875,2.49888443 C5.4285,2.49888443 4.8125,1.93913432 4.8125,1.24944221 C4.8125,0.559750112 5.4285,0 6.1875,0 C6.9465,0 7.5625,0.559750112 7.5625,1.24944221" id="Fill-5"></path>
                    <path d="M2.75,1.24944221 C2.75,1.93913432 2.134,2.49888443 1.375,2.49888443 C0.616,2.49888443 0,1.93913432 0,1.24944221 C0,0.559750112 0.616,0 1.375,0 C2.134,0 2.75,0.559750112 2.75,1.24944221" id="Fill-7"></path>
                    <polygon id="Fill-9" points="17.1875 1.87416332 55 1.87416332 55 0.624721107 17.1875 0.624721107"></polygon>
                    <path d="M46.967525,14.3258545 C46.967525,14.6600803 47.0548375,14.9199643 47.2294625,15.1055065 C47.4040875,15.2910486 47.60415,15.3835074 47.82965,15.3835074 C47.9802125,15.3835074 48.1383375,15.3429005 48.3047125,15.261062 C48.471775,15.1792236 48.6305875,15.0580277 48.782525,14.8968496 C48.933775,14.7356716 49.0582125,14.5313878 49.15515,14.2839982 C49.2514,14.0359839 49.3002125,13.7879697 49.3002125,13.5387059 C49.3002125,13.206979 49.2094625,12.9495939 49.0279625,12.7665506 C48.8464625,12.5835074 48.625775,12.4916734 48.3652125,12.4916734 C48.1933375,12.4916734 48.031775,12.5316555 47.8798375,12.6109951 C47.7279,12.6903347 47.5814625,12.8177778 47.43915,12.9933244 C47.2968375,13.168871 47.182025,13.3825257 47.0960875,13.6342883 C47.01015,13.8854261 46.967525,14.1159482 46.967525,14.3258545 M48.917275,15.3179116 C48.74265,15.5009549 48.5474,15.6477644 48.3308375,15.7589647 C48.1149625,15.8701651 47.8984,15.9257653 47.6804625,15.9257653 C47.4412125,15.9257653 47.209525,15.8620437 46.9833375,15.7352253 C46.7578375,15.608407 46.5749625,15.4128693 46.434025,15.1492369 C46.2930875,14.8856046 46.222275,14.5969835 46.222275,14.2821241 C46.222275,13.8941722 46.3315875,13.5055957 46.5509,13.1157697 C46.769525,12.7265685 47.0410875,12.4348237 47.366275,12.239286 C47.6914625,12.044373 48.007025,11.9462918 48.3129625,11.9462918 C48.5467125,11.9462918 48.7694625,12.001892 48.9819,12.1130924 C49.19365,12.2242927 49.376525,12.3929674 49.5298375,12.6203659 L49.66665,12.0524944 L50.3878375,12.0524944 L49.8075875,14.5088978 C49.72715,14.8506203 49.6865875,15.0399108 49.6865875,15.0761446 C49.6865875,15.142365 49.7140875,15.1985899 49.7690875,15.2466934 C49.8240875,15.2941722 49.890775,15.3179116 49.9684625,15.3179116 C50.110775,15.3179116 50.297775,15.2435698 50.528775,15.0942615 C50.8347125,14.8993485 51.0774,14.6375904 51.2554625,14.3096118 C51.4342125,13.9810085 51.5235875,13.6424096 51.5235875,13.2938153 C51.5235875,12.8858724 51.408775,12.5054172 51.17915,12.1518251 C50.949525,11.7976082 50.60715,11.5146095 50.152025,11.3022044 C49.6969,11.0897992 49.19365,10.9835966 48.64365,10.9835966 C48.0145875,10.9835966 47.440525,11.1172869 46.9214625,11.3846676 C46.4017125,11.6520482 45.9988375,12.0350022 45.7128375,12.5341544 C45.4268375,13.0333066 45.2838375,13.5680678 45.2838375,14.1390629 C45.2838375,14.736921 45.4268375,15.2516912 45.7128375,15.6839982 C45.9988375,16.1156805 46.412025,16.434913 46.9530875,16.641071 C47.4948375,16.8472289 48.0943375,16.9503079 48.752275,16.9503079 C49.4555875,16.9503079 50.0454625,16.8428559 50.520525,16.6285765 C50.9955875,16.4136725 51.3517125,16.152539 51.5882125,15.8451763 L52.3169625,15.8451763 C52.18015,16.1013119 51.945025,16.3624453 51.612275,16.6285765 C51.2788375,16.894083 50.8828375,17.104614 50.4235875,17.2595448 C49.9643375,17.4144757 49.4115875,17.4919411 48.7639625,17.4919411 C48.1679,17.4919411 47.6179,17.4225971 47.11465,17.2832842 C46.6107125,17.1445962 46.1817125,16.9353146 45.82765,16.6554395 C45.4729,16.3761892 45.2054625,16.0550826 45.026025,15.6914949 C44.800525,15.229826 44.687775,14.7319232 44.687775,14.1977867 C44.687775,13.6024275 44.8218375,13.0351807 45.09065,12.4954217 C45.4179,11.8344668 45.8833375,11.3278179 46.486275,10.9767247 C47.0892125,10.6250067 47.820025,10.4494601 48.6794,10.4494601 C49.3455875,10.4494601 49.9437125,10.5731548 50.4744625,10.8211691 C51.004525,11.0685587 51.422525,11.4377689 51.72915,11.9281749 C51.9897125,12.3504864 52.11965,12.8090317 52.11965,13.3044355 C52.11965,14.0122445 51.846025,14.640714 51.2980875,15.1898438 C50.809275,15.6827488 50.2750875,15.9288889 49.6948375,15.9288889 C49.5092125,15.9288889 49.3593375,15.9032753 49.2452125,15.8520482 C49.1310875,15.8008211 49.0472125,15.7277287 48.9935875,15.6327711 C48.958525,15.5715484 48.9330875,15.4665953 48.917275,15.3179116" id="Fill-14"></path>
                </g>
            </g>
            <g id="Page-1" filter="url(#filter-4)" transform="translate(85.000000, 98.057714)">
                <polygon id="Fill-1" fill="#EB6100" points="0 7.49665328 77 7.49665328 77 0 0 0"></polygon>
                <polygon id="Fill-2" fill="#FFFFFF" points="0 7.49665328 0 50 5.875375 50 11.9521875 50 77 50 77 7.49665328"></polygon>
                <g id="ic_restore_from_trash_24px" transform="translate(27.500000, 14.814815)" fill="#000000" fill-rule="nonzero">
                    <path d="M22,1.54320988 L16.5,1.54320988 L14.9285714,0 L7.07142857,0 L5.5,1.54320988 L0,1.54320988 L0,4.62962963 L22,4.62962963 L22,1.54320988 Z M1.57142857,6.17283951 L1.57142857,24.691358 C1.57142857,26.3888889 2.98571429,27.7777778 4.71428571,27.7777778 L17.2857143,27.7777778 C19.0142857,27.7777778 20.4285714,26.3888889 20.4285714,24.691358 L20.4285714,6.17283951 L1.57142857,6.17283951 Z" id="Shape"></path>
                </g>
                <g id="Group-15" transform="translate(8.937500, 2.498884)" fill="#FFFFFF">
                    <path d="M12.375,1.24944221 C12.375,1.93913432 11.759,2.49888443 11,2.49888443 C10.241,2.49888443 9.625,1.93913432 9.625,1.24944221 C9.625,0.559750112 10.241,0 11,0 C11.759,0 12.375,0.559750112 12.375,1.24944221" id="Fill-3"></path>
                    <path d="M7.5625,1.24944221 C7.5625,1.93913432 6.9465,2.49888443 6.1875,2.49888443 C5.4285,2.49888443 4.8125,1.93913432 4.8125,1.24944221 C4.8125,0.559750112 5.4285,0 6.1875,0 C6.9465,0 7.5625,0.559750112 7.5625,1.24944221" id="Fill-5"></path>
                    <path d="M2.75,1.24944221 C2.75,1.93913432 2.134,2.49888443 1.375,2.49888443 C0.616,2.49888443 0,1.93913432 0,1.24944221 C0,0.559750112 0.616,0 1.375,0 C2.134,0 2.75,0.559750112 2.75,1.24944221" id="Fill-7"></path>
                    <polygon id="Fill-9" points="17.1875 1.87416332 55 1.87416332 55 0.624721107 17.1875 0.624721107"></polygon>
                    <path d="M46.967525,14.3258545 C46.967525,14.6600803 47.0548375,14.9199643 47.2294625,15.1055065 C47.4040875,15.2910486 47.60415,15.3835074 47.82965,15.3835074 C47.9802125,15.3835074 48.1383375,15.3429005 48.3047125,15.261062 C48.471775,15.1792236 48.6305875,15.0580277 48.782525,14.8968496 C48.933775,14.7356716 49.0582125,14.5313878 49.15515,14.2839982 C49.2514,14.0359839 49.3002125,13.7879697 49.3002125,13.5387059 C49.3002125,13.206979 49.2094625,12.9495939 49.0279625,12.7665506 C48.8464625,12.5835074 48.625775,12.4916734 48.3652125,12.4916734 C48.1933375,12.4916734 48.031775,12.5316555 47.8798375,12.6109951 C47.7279,12.6903347 47.5814625,12.8177778 47.43915,12.9933244 C47.2968375,13.168871 47.182025,13.3825257 47.0960875,13.6342883 C47.01015,13.8854261 46.967525,14.1159482 46.967525,14.3258545 M48.917275,15.3179116 C48.74265,15.5009549 48.5474,15.6477644 48.3308375,15.7589647 C48.1149625,15.8701651 47.8984,15.9257653 47.6804625,15.9257653 C47.4412125,15.9257653 47.209525,15.8620437 46.9833375,15.7352253 C46.7578375,15.608407 46.5749625,15.4128693 46.434025,15.1492369 C46.2930875,14.8856046 46.222275,14.5969835 46.222275,14.2821241 C46.222275,13.8941722 46.3315875,13.5055957 46.5509,13.1157697 C46.769525,12.7265685 47.0410875,12.4348237 47.366275,12.239286 C47.6914625,12.044373 48.007025,11.9462918 48.3129625,11.9462918 C48.5467125,11.9462918 48.7694625,12.001892 48.9819,12.1130924 C49.19365,12.2242927 49.376525,12.3929674 49.5298375,12.6203659 L49.66665,12.0524944 L50.3878375,12.0524944 L49.8075875,14.5088978 C49.72715,14.8506203 49.6865875,15.0399108 49.6865875,15.0761446 C49.6865875,15.142365 49.7140875,15.1985899 49.7690875,15.2466934 C49.8240875,15.2941722 49.890775,15.3179116 49.9684625,15.3179116 C50.110775,15.3179116 50.297775,15.2435698 50.528775,15.0942615 C50.8347125,14.8993485 51.0774,14.6375904 51.2554625,14.3096118 C51.4342125,13.9810085 51.5235875,13.6424096 51.5235875,13.2938153 C51.5235875,12.8858724 51.408775,12.5054172 51.17915,12.1518251 C50.949525,11.7976082 50.60715,11.5146095 50.152025,11.3022044 C49.6969,11.0897992 49.19365,10.9835966 48.64365,10.9835966 C48.0145875,10.9835966 47.440525,11.1172869 46.9214625,11.3846676 C46.4017125,11.6520482 45.9988375,12.0350022 45.7128375,12.5341544 C45.4268375,13.0333066 45.2838375,13.5680678 45.2838375,14.1390629 C45.2838375,14.736921 45.4268375,15.2516912 45.7128375,15.6839982 C45.9988375,16.1156805 46.412025,16.434913 46.9530875,16.641071 C47.4948375,16.8472289 48.0943375,16.9503079 48.752275,16.9503079 C49.4555875,16.9503079 50.0454625,16.8428559 50.520525,16.6285765 C50.9955875,16.4136725 51.3517125,16.152539 51.5882125,15.8451763 L52.3169625,15.8451763 C52.18015,16.1013119 51.945025,16.3624453 51.612275,16.6285765 C51.2788375,16.894083 50.8828375,17.104614 50.4235875,17.2595448 C49.9643375,17.4144757 49.4115875,17.4919411 48.7639625,17.4919411 C48.1679,17.4919411 47.6179,17.4225971 47.11465,17.2832842 C46.6107125,17.1445962 46.1817125,16.9353146 45.82765,16.6554395 C45.4729,16.3761892 45.2054625,16.0550826 45.026025,15.6914949 C44.800525,15.229826 44.687775,14.7319232 44.687775,14.1977867 C44.687775,13.6024275 44.8218375,13.0351807 45.09065,12.4954217 C45.4179,11.8344668 45.8833375,11.3278179 46.486275,10.9767247 C47.0892125,10.6250067 47.820025,10.4494601 48.6794,10.4494601 C49.3455875,10.4494601 49.9437125,10.5731548 50.4744625,10.8211691 C51.004525,11.0685587 51.422525,11.4377689 51.72915,11.9281749 C51.9897125,12.3504864 52.11965,12.8090317 52.11965,13.3044355 C52.11965,14.0122445 51.846025,14.640714 51.2980875,15.1898438 C50.809275,15.6827488 50.2750875,15.9288889 49.6948375,15.9288889 C49.5092125,15.9288889 49.3593375,15.9032753 49.2452125,15.8520482 C49.1310875,15.8008211 49.0472125,15.7277287 48.9935875,15.6327711 C48.958525,15.5715484 48.9330875,15.4665953 48.917275,15.3179116" id="Fill-14"></path>
                </g>
            </g>
            <g id="Page-1" filter="url(#filter-5)" transform="translate(98.000000, 108.057714)">
                <polygon id="Fill-1" fill="#EB6100" points="0 7.49665328 77 7.49665328 77 0 0 0"></polygon>
                <polygon id="Fill-2" fill="#FFFFFF" points="0 7.49665328 0 50 5.875375 50 11.9521875 50 77 50 77 7.49665328"></polygon>
                <g id="ic_restore_from_trash_24px" transform="translate(27.500000, 14.814815)" fill="#000000" fill-opacity="0.54" fill-rule="nonzero">
                    <path d="M22,1.54320988 L16.5,1.54320988 L14.9285714,0 L7.07142857,0 L5.5,1.54320988 L0,1.54320988 L0,4.62962963 L22,4.62962963 L22,1.54320988 Z M1.57142857,6.17283951 L1.57142857,24.691358 C1.57142857,26.3888889 2.98571429,27.7777778 4.71428571,27.7777778 L17.2857143,27.7777778 C19.0142857,27.7777778 20.4285714,26.3888889 20.4285714,24.691358 L20.4285714,6.17283951 L1.57142857,6.17283951 Z" id="Shape"></path>
                </g>
                <g id="Group-15" transform="translate(8.937500, 2.498884)" fill="#FFFFFF">
                    <path d="M12.375,1.24944221 C12.375,1.93913432 11.759,2.49888443 11,2.49888443 C10.241,2.49888443 9.625,1.93913432 9.625,1.24944221 C9.625,0.559750112 10.241,0 11,0 C11.759,0 12.375,0.559750112 12.375,1.24944221" id="Fill-3"></path>
                    <path d="M7.5625,1.24944221 C7.5625,1.93913432 6.9465,2.49888443 6.1875,2.49888443 C5.4285,2.49888443 4.8125,1.93913432 4.8125,1.24944221 C4.8125,0.559750112 5.4285,0 6.1875,0 C6.9465,0 7.5625,0.559750112 7.5625,1.24944221" id="Fill-5"></path>
                    <path d="M2.75,1.24944221 C2.75,1.93913432 2.134,2.49888443 1.375,2.49888443 C0.616,2.49888443 0,1.93913432 0,1.24944221 C0,0.559750112 0.616,0 1.375,0 C2.134,0 2.75,0.559750112 2.75,1.24944221" id="Fill-7"></path>
                    <polygon id="Fill-9" points="17.1875 1.87416332 55 1.87416332 55 0.624721107 17.1875 0.624721107"></polygon>
                    <path d="M46.967525,14.3258545 C46.967525,14.6600803 47.0548375,14.9199643 47.2294625,15.1055065 C47.4040875,15.2910486 47.60415,15.3835074 47.82965,15.3835074 C47.9802125,15.3835074 48.1383375,15.3429005 48.3047125,15.261062 C48.471775,15.1792236 48.6305875,15.0580277 48.782525,14.8968496 C48.933775,14.7356716 49.0582125,14.5313878 49.15515,14.2839982 C49.2514,14.0359839 49.3002125,13.7879697 49.3002125,13.5387059 C49.3002125,13.206979 49.2094625,12.9495939 49.0279625,12.7665506 C48.8464625,12.5835074 48.625775,12.4916734 48.3652125,12.4916734 C48.1933375,12.4916734 48.031775,12.5316555 47.8798375,12.6109951 C47.7279,12.6903347 47.5814625,12.8177778 47.43915,12.9933244 C47.2968375,13.168871 47.182025,13.3825257 47.0960875,13.6342883 C47.01015,13.8854261 46.967525,14.1159482 46.967525,14.3258545 M48.917275,15.3179116 C48.74265,15.5009549 48.5474,15.6477644 48.3308375,15.7589647 C48.1149625,15.8701651 47.8984,15.9257653 47.6804625,15.9257653 C47.4412125,15.9257653 47.209525,15.8620437 46.9833375,15.7352253 C46.7578375,15.608407 46.5749625,15.4128693 46.434025,15.1492369 C46.2930875,14.8856046 46.222275,14.5969835 46.222275,14.2821241 C46.222275,13.8941722 46.3315875,13.5055957 46.5509,13.1157697 C46.769525,12.7265685 47.0410875,12.4348237 47.366275,12.239286 C47.6914625,12.044373 48.007025,11.9462918 48.3129625,11.9462918 C48.5467125,11.9462918 48.7694625,12.001892 48.9819,12.1130924 C49.19365,12.2242927 49.376525,12.3929674 49.5298375,12.6203659 L49.66665,12.0524944 L50.3878375,12.0524944 L49.8075875,14.5088978 C49.72715,14.8506203 49.6865875,15.0399108 49.6865875,15.0761446 C49.6865875,15.142365 49.7140875,15.1985899 49.7690875,15.2466934 C49.8240875,15.2941722 49.890775,15.3179116 49.9684625,15.3179116 C50.110775,15.3179116 50.297775,15.2435698 50.528775,15.0942615 C50.8347125,14.8993485 51.0774,14.6375904 51.2554625,14.3096118 C51.4342125,13.9810085 51.5235875,13.6424096 51.5235875,13.2938153 C51.5235875,12.8858724 51.408775,12.5054172 51.17915,12.1518251 C50.949525,11.7976082 50.60715,11.5146095 50.152025,11.3022044 C49.6969,11.0897992 49.19365,10.9835966 48.64365,10.9835966 C48.0145875,10.9835966 47.440525,11.1172869 46.9214625,11.3846676 C46.4017125,11.6520482 45.9988375,12.0350022 45.7128375,12.5341544 C45.4268375,13.0333066 45.2838375,13.5680678 45.2838375,14.1390629 C45.2838375,14.736921 45.4268375,15.2516912 45.7128375,15.6839982 C45.9988375,16.1156805 46.412025,16.434913 46.9530875,16.641071 C47.4948375,16.8472289 48.0943375,16.9503079 48.752275,16.9503079 C49.4555875,16.9503079 50.0454625,16.8428559 50.520525,16.6285765 C50.9955875,16.4136725 51.3517125,16.152539 51.5882125,15.8451763 L52.3169625,15.8451763 C52.18015,16.1013119 51.945025,16.3624453 51.612275,16.6285765 C51.2788375,16.894083 50.8828375,17.104614 50.4235875,17.2595448 C49.9643375,17.4144757 49.4115875,17.4919411 48.7639625,17.4919411 C48.1679,17.4919411 47.6179,17.4225971 47.11465,17.2832842 C46.6107125,17.1445962 46.1817125,16.9353146 45.82765,16.6554395 C45.4729,16.3761892 45.2054625,16.0550826 45.026025,15.6914949 C44.800525,15.229826 44.687775,14.7319232 44.687775,14.1977867 C44.687775,13.6024275 44.8218375,13.0351807 45.09065,12.4954217 C45.4179,11.8344668 45.8833375,11.3278179 46.486275,10.9767247 C47.0892125,10.6250067 47.820025,10.4494601 48.6794,10.4494601 C49.3455875,10.4494601 49.9437125,10.5731548 50.4744625,10.8211691 C51.004525,11.0685587 51.422525,11.4377689 51.72915,11.9281749 C51.9897125,12.3504864 52.11965,12.8090317 52.11965,13.3044355 C52.11965,14.0122445 51.846025,14.640714 51.2980875,15.1898438 C50.809275,15.6827488 50.2750875,15.9288889 49.6948375,15.9288889 C49.5092125,15.9288889 49.3593375,15.9032753 49.2452125,15.8520482 C49.1310875,15.8008211 49.0472125,15.7277287 48.9935875,15.6327711 C48.958525,15.5715484 48.9330875,15.4665953 48.917275,15.3179116" id="Fill-14"></path>
                </g>
            </g>
        </g>
    </g>
</svg>