<?xml version="1.0" encoding="UTF-8"?>
<svg width="234px" height="234px" viewBox="0 0 234 234" version="1.1" xmlns="http://www.w3.org/2000/svg" xmlns:xlink="http://www.w3.org/1999/xlink">
    <!-- Generator: Sketch 49 (51002) - http://www.bohemiancoding.com/sketch -->
    <title>2of6</title>
    <desc>Created with Sketch.</desc>
    <defs>
        <linearGradient x1="15.061457%" y1="30.6732179%" x2="91.669499%" y2="53.6764034%" id="linearGradient-1">
            <stop stop-color="#643338" offset="0%"></stop>
            <stop stop-color="#FA519E" offset="100%"></stop>
        </linearGradient>
        <polygon id="path-2" points="122.942286 32.9422863 200.884573 77.9422863 200.884573 167.942286 122.942286 212.942286 45 167.942286 45 77.9422863"></polygon>
        <polygon id="path-3" points="24 0 44.7846097 11.75 44.7846097 35.25 24 47 3.21539031 35.25 3.21539031 11.75"></polygon>
        <linearGradient x1="100%" y1="50%" x2="-2.22044605e-14%" y2="50%" id="linearGradient-4">
            <stop stop-color="#26B6BB" offset="0%"></stop>
            <stop stop-color="#2672BB" offset="100%"></stop>
        </linearGradient>
        <linearGradient x1="50%" y1="0%" x2="50%" y2="100%" id="linearGradient-5">
            <stop stop-color="#FFB02C" offset="0%"></stop>
            <stop stop-color="#FFE600" offset="50.5531973%"></stop>
            <stop stop-color="#FFB02C" offset="100%"></stop>
        </linearGradient>
        <linearGradient x1="50%" y1="100%" x2="50%" y2="3.061617e-15%" id="linearGradient-6">
            <stop stop-color="#26B6BB" offset="0%"></stop>
            <stop stop-color="#2672BB" offset="100%"></stop>
        </linearGradient>
        <linearGradient x1="50%" y1="100%" x2="50%" y2="3.061617e-15%" id="linearGradient-7">
            <stop stop-color="#FFE600" offset="0%"></stop>
            <stop stop-color="#FFB02C" offset="100%"></stop>
        </linearGradient>
        <polygon id="path-8" points="24 0 44.7846097 11.75 44.7846097 35.25 24 47 3.21539031 35.25 3.21539031 11.75"></polygon>
        <polygon id="path-9" points="24 0 44.7846097 11.75 44.7846097 35.25 24 47 3.21539031 35.25 3.21539031 11.75"></polygon>
    </defs>
    <g id="2of6" stroke="none" stroke-width="1" fill="none" fill-rule="evenodd">
        <g id="Group" transform="translate(-6.000000, -6.000000)">
            <g id="Polygon-2" transform="translate(122.942286, 122.942286) rotate(-330.000000) translate(-122.942286, -122.942286) ">
                <use fill="#FA5161" fill-rule="evenodd" xlink:href="#path-2"></use>
                <path stroke="url(#linearGradient-1)" stroke-width="6" d="M122.942286,36.406388 L48,79.6743371 L48,166.210236 L122.942286,209.478185 L197.884573,166.210236 L197.884573,79.6743371 L122.942286,36.406388 Z"></path>
            </g>
            <g id="Group-61" transform="translate(122.064036, 118.309389) rotate(-315.000000) translate(-122.064036, -118.309389) translate(66.564036, 69.809389)" fill="#FFFFFF">
                <path d="M35.3996963,48.5106944 L39.6607704,48.5106944 C40.9279462,48.5106944 41.9551951,49.5379433 41.9551951,50.8051191 C41.9551951,52.0722949 40.9279462,53.0995438 39.6607704,53.0995438 L35.3996963,53.0995438 L35.3996963,57.5549924 C35.3996963,61.9732704 31.8179743,65.5549924 27.3996963,65.5549924 C26.5188856,65.5549924 25.6380748,65.5549924 24.7572641,65.5549924 C10.1832651,63.4318881 1.93084377,58.4273922 0,50.5415047 C2.33337502,42.4331278 10.5857964,37.3858582 24.7572641,35.3996959 C25.6380748,35.3996959 26.5188856,35.3996959 27.3996963,35.3996959 C31.8179743,35.3996959 35.3996963,38.9814179 35.3996963,43.3996959 L35.3996963,48.5106944 Z M13.1109985,50.8051191 L31.4663963,51.788444 L31.4663963,49.8217942 L13.1109985,50.8051191 Z" id="Combined-Shape"></path>
                <rect id="Rectangle-49" x="60.310593" y="18.3553979" width="6.55549924" height="29.4997466"></rect>
                <rect id="Rectangle-50" x="42.610745" y="49.1662443" width="68.1771921" height="3.27774962" rx="1.63887481"></rect>
                <path d="M60.310593,53.7550938 L66.8660922,53.7550938 L66.8660922,93.0880892 C66.8660922,94.8983403 65.3985937,96.3658388 63.5883426,96.3658388 L63.5883426,96.3658388 C61.7780915,96.3658388 60.310593,94.8983403 60.310593,93.0880892 L60.310593,53.7550938 Z" id="Rectangle-49"></path>
                <path d="M63.5883426,0 L63.5883426,0 C65.3985937,-3.32537738e-16 66.8660922,1.46749849 66.8660922,3.27774962 L66.8660922,7.86659909 L60.310593,7.86659909 L60.310593,3.27774962 C60.310593,1.46749849 61.7780915,3.32537738e-16 63.5883426,0 Z" id="Rectangle-46"></path>
                <polygon id="Rectangle-47" opacity="0.5" points="58.3439432 8.52214901 68.832742 8.52214901 70.1438419 9.69733586 70.1438419 16.5676833 68.832742 17.6998479 58.3439432 17.6998479 57.0328434 16.3125329 57.0328434 9.86310682"></polygon>
                <path d="M57.0328434,10.1931931 L57.0328434,9.86310682 L58.3439432,8.52214901 L68.832742,8.52214901 L70.1438419,9.69733586 L70.1438419,10.1931931 C86.3186453,11.9834669 100.049749,20.3075659 107.477113,31.9149305 C100.037689,23.7402501 86.2740368,17.881619 70.0650309,16.6357384 L68.832742,17.6998479 L58.3439432,17.6998479 L57.3231845,16.6197518 C41.0224349,17.8307253 27.1713374,23.7047131 19.6995726,31.9149305 C27.1269364,20.3075659 40.8580399,11.9834669 57.0328434,10.1931931 Z" id="Combined-Shape"></path>
            </g>
            <g id="Group-52" transform="translate(78.942286, 131.942286)">
                <g id="Group-32">
                    <g id="Polygon">
                        <use fill="#12142D" fill-rule="evenodd" xlink:href="#path-3"></use>
                        <path stroke="#4A90E2" stroke-width="2" d="M24,1.1487337 L4.21539031,12.3334116 L4.21539031,34.6665884 L24,45.8512663 L43.7846097,34.6665884 L43.7846097,12.3334116 L24,1.1487337 Z"></path>
                    </g>
                    <g id="Group-26" transform="translate(12.342857, 13.428571)">
                        <path d="M3.39345106,0.456276421 C2.56707681,1.09598256 2.52194934,2.17068487 3.29236553,2.85674797 L11.5438334,10.2027284 C12.3142496,10.8887915 13.6088665,10.9262567 14.4351204,10.2866505 C15.2614946,9.64684445 15.3066221,8.57214214 14.5362059,7.88617895 L6.28473806,0.540098605 C5.88183999,0.181331663 5.33573742,0 4.78819077,0 C4.28853941,0 3.78768465,0.151059765 3.39345106,0.456276421" id="Fill-1" fill="url(#linearGradient-4)"></path>
                        <path d="M20.0020331,0.562547279 L3.25686515,17.1672655 C2.53619274,17.8818442 2.57850579,19.0013195 3.35128179,19.6675103 C4.12394526,20.3339093 5.33448136,20.2948869 6.05504124,19.5803082 L22.8003217,2.97548592 C23.5208816,2.26101134 23.4786811,1.14153601 22.7059051,0.475241107 C22.3371288,0.157338418 21.8688718,0 21.4016276,0 C20.8895945,0 20.3787994,0.188972597 20.0020331,0.562547279" id="Fill-4" fill="url(#linearGradient-5)"></path>
                        <path d="M20.5714286,0 C20.9987226,0 21.3458812,0.371696899 21.3586193,0.834968285 L21.3586193,18.3820729 C21.3586193,19.3546105 22.0804088,20.1428571 22.9707394,20.1428571 L23.0735942,20.1428571 C23.9638297,20.1428571 24.6857143,19.3546105 24.6857143,18.3820729 L24.6857143,1.76140723 C24.6857143,0.78897339 23.9638297,0.000622955697 23.0735942,0.000622955697 L21.35976,0.000622955697 L21.35976,0 L20.5714286,0 Z" id="Fill-7" fill="url(#linearGradient-6)"></path>
                        <path d="M1.66551881,0 C0.745615691,0 0,0.814639394 0,1.81970049 L0,18.3230528 C0,19.3280101 0.745615691,20.1427533 1.66551881,20.1427533 L3.32600096,20.1427533 L3.32600096,20.1428571 L4.11428571,20.1428571 C3.67923236,20.1428571 3.32666618,19.7579644 3.32609599,19.2829485 L3.32609599,0.857416788 C3.32799662,0.383646771 3.67999261,0.000103828625 4.11409565,0.000103828625 L3.32609599,0.000103828625 L3.32609599,0 L1.66551881,0 Z" id="Fill-10" fill="url(#linearGradient-7)"></path>
                    </g>
                </g>
                <g id="Group-32" transform="translate(24.000000, 0.000000)">
                    <g id="Polygon">
                        <use fill="#12142D" fill-rule="evenodd" xlink:href="#path-8"></use>
                        <path stroke="#4A90E2" stroke-width="2" d="M24,1.1487337 L4.21539031,12.3334116 L4.21539031,34.6665884 L24,45.8512663 L43.7846097,34.6665884 L43.7846097,12.3334116 L24,1.1487337 Z"></path>
                    </g>
                    <g id="Group-26" transform="translate(12.342857, 13.428571)">
                        <path d="M3.39345106,0.456276421 C2.56707681,1.09598256 2.52194934,2.17068487 3.29236553,2.85674797 L11.5438334,10.2027284 C12.3142496,10.8887915 13.6088665,10.9262567 14.4351204,10.2866505 C15.2614946,9.64684445 15.3066221,8.57214214 14.5362059,7.88617895 L6.28473806,0.540098605 C5.88183999,0.181331663 5.33573742,0 4.78819077,0 C4.28853941,0 3.78768465,0.151059765 3.39345106,0.456276421" id="Fill-1" fill="url(#linearGradient-4)"></path>
                        <path d="M20.0020331,0.562547279 L3.25686515,17.1672655 C2.53619274,17.8818442 2.57850579,19.0013195 3.35128179,19.6675103 C4.12394526,20.3339093 5.33448136,20.2948869 6.05504124,19.5803082 L22.8003217,2.97548592 C23.5208816,2.26101134 23.4786811,1.14153601 22.7059051,0.475241107 C22.3371288,0.157338418 21.8688718,0 21.4016276,0 C20.8895945,0 20.3787994,0.188972597 20.0020331,0.562547279" id="Fill-4" fill="url(#linearGradient-5)"></path>
                        <path d="M20.5714286,0 C20.9987226,0 21.3458812,0.371696899 21.3586193,0.834968285 L21.3586193,18.3820729 C21.3586193,19.3546105 22.0804088,20.1428571 22.9707394,20.1428571 L23.0735942,20.1428571 C23.9638297,20.1428571 24.6857143,19.3546105 24.6857143,18.3820729 L24.6857143,1.76140723 C24.6857143,0.78897339 23.9638297,0.000622955697 23.0735942,0.000622955697 L21.35976,0.000622955697 L21.35976,0 L20.5714286,0 Z" id="Fill-7" fill="url(#linearGradient-6)"></path>
                        <path d="M1.66551881,0 C0.745615691,0 0,0.814639394 0,1.81970049 L0,18.3230528 C0,19.3280101 0.745615691,20.1427533 1.66551881,20.1427533 L3.32600096,20.1427533 L3.32600096,20.1428571 L4.11428571,20.1428571 C3.67923236,20.1428571 3.32666618,19.7579644 3.32609599,19.2829485 L3.32609599,0.857416788 C3.32799662,0.383646771 3.67999261,0.000103828625 4.11409565,0.000103828625 L3.32609599,0.000103828625 L3.32609599,0 L1.66551881,0 Z" id="Fill-10" fill="url(#linearGradient-7)"></path>
                    </g>
                </g>
                <g id="Group-32" transform="translate(48.000000, 0.000000)">
                    <g id="Polygon">
                        <use fill="#12142D" fill-rule="evenodd" xlink:href="#path-9"></use>
                        <path stroke="#4A90E2" stroke-width="2" d="M24,1.1487337 L4.21539031,12.3334116 L4.21539031,34.6665884 L24,45.8512663 L43.7846097,34.6665884 L43.7846097,12.3334116 L24,1.1487337 Z"></path>
                    </g>
                    <g id="Group-26" transform="translate(12.342857, 13.428571)">
                        <path d="M3.39345106,0.456276421 C2.56707681,1.09598256 2.52194934,2.17068487 3.29236553,2.85674797 L11.5438334,10.2027284 C12.3142496,10.8887915 13.6088665,10.9262567 14.4351204,10.2866505 C15.2614946,9.64684445 15.3066221,8.57214214 14.5362059,7.88617895 L6.28473806,0.540098605 C5.88183999,0.181331663 5.33573742,0 4.78819077,0 C4.28853941,0 3.78768465,0.151059765 3.39345106,0.456276421" id="Fill-1" fill="url(#linearGradient-4)"></path>
                        <path d="M20.0020331,0.562547279 L3.25686515,17.1672655 C2.53619274,17.8818442 2.57850579,19.0013195 3.35128179,19.6675103 C4.12394526,20.3339093 5.33448136,20.2948869 6.05504124,19.5803082 L22.8003217,2.97548592 C23.5208816,2.26101134 23.4786811,1.14153601 22.7059051,0.475241107 C22.3371288,0.157338418 21.8688718,0 21.4016276,0 C20.8895945,0 20.3787994,0.188972597 20.0020331,0.562547279" id="Fill-4" fill="url(#linearGradient-5)"></path>
                        <path d="M20.5714286,0 C20.9987226,0 21.3458812,0.371696899 21.3586193,0.834968285 L21.3586193,18.3820729 C21.3586193,19.3546105 22.0804088,20.1428571 22.9707394,20.1428571 L23.0735942,20.1428571 C23.9638297,20.1428571 24.6857143,19.3546105 24.6857143,18.3820729 L24.6857143,1.76140723 C24.6857143,0.78897339 23.9638297,0.000622955697 23.0735942,0.000622955697 L21.35976,0.000622955697 L21.35976,0 L20.5714286,0 Z" id="Fill-7" fill="url(#linearGradient-6)"></path>
                        <path d="M1.66551881,0 C0.745615691,0 0,0.814639394 0,1.81970049 L0,18.3230528 C0,19.3280101 0.745615691,20.1427533 1.66551881,20.1427533 L3.32600096,20.1427533 L3.32600096,20.1428571 L4.11428571,20.1428571 C3.67923236,20.1428571 3.32666618,19.7579644 3.32609599,19.2829485 L3.32609599,0.857416788 C3.32799662,0.383646771 3.67999261,0.000103828625 4.11409565,0.000103828625 L3.32609599,0.000103828625 L3.32609599,0 L1.66551881,0 Z" id="Fill-10" fill="url(#linearGradient-7)"></path>
                    </g>
                </g>
            </g>
        </g>
    </g>
</svg>